<?xml version="1.0" encoding="UTF-8" standalone="no"?>
<svg
   width="16"
   height="16"
   viewBox="0 0 16 16"
   version="1.1"
   id="svg5"
   inkscape:version="1.1.1 (3bf5ae0d25, 2021-09-20, custom)"
   sodipodi:docname="folder-documents.svg"
   xmlns:inkscape="http://www.inkscape.org/namespaces/inkscape"
   xmlns:sodipodi="http://sodipodi.sourceforge.net/DTD/sodipodi-0.dtd"
   xmlns="http://www.w3.org/2000/svg"
   xmlns:svg="http://www.w3.org/2000/svg"
   xmlns:rdf="http://www.w3.org/1999/02/22-rdf-syntax-ns#"
   xmlns:cc="http://creativecommons.org/ns#"
   xmlns:dc="http://purl.org/dc/elements/1.1/">
  <metadata
     id="metadata11">
    <rdf:RDF>
      <cc:Work
         rdf:about="">
        <dc:format>image/svg+xml</dc:format>
        <dc:type
           rdf:resource="http://purl.org/dc/dcmitype/StillImage" />
      </cc:Work>
    </rdf:RDF>
  </metadata>
  <sodipodi:namedview
     id="namedview7"
     pagecolor="#ffffff"
     bordercolor="#666666"
     borderopacity="1.0"
     inkscape:pageshadow="2"
     inkscape:pageopacity="0.0"
     inkscape:pagecheckerboard="0"
     inkscape:document-units="px"
     showgrid="false"
     inkscape:zoom="6.2774698"
     inkscape:cx="7.7260428"
     inkscape:cy="11.15099"
     inkscape:window-width="1366"
     inkscape:window-height="680"
     inkscape:window-x="0"
     inkscape:window-y="0"
     inkscape:window-maximized="1"
     inkscape:current-layer="layer1"
     inkscape:document-rotation="0"
     showguides="false">
    <inkscape:grid
       type="xygrid"
       id="grid824" />
  </sodipodi:namedview>
  <defs
     id="defs2" />
  <g
     inkscape:label="Capa 1"
     inkscape:groupmode="layer"
     id="layer1">
    <path
       id="rect1039"
       style="fill:#a1a1a1;fill-opacity:1"
       d="M 6 0 L 5 1 L 2 4 L 1 5 L 1 13 C 1 14.662 2.338 16 4 16 L 12 16 C 12.10611 16 12.211321 15.993134 12.314453 15.982422 C 12.354135 15.9783 12.392452 15.970495 12.431641 15.964844 C 12.499787 15.955057 12.568206 15.945897 12.634766 15.931641 C 12.661915 15.925795 12.687981 15.918685 12.714844 15.912109 C 12.788493 15.8942 12.862217 15.87477 12.933594 15.851562 C 12.958137 15.843514 12.981605 15.832879 13.005859 15.824219 C 13.080793 15.797677 13.154535 15.770459 13.226562 15.738281 C 13.248392 15.72847 13.26947 15.717347 13.291016 15.707031 C 13.362218 15.673142 13.432059 15.636853 13.5 15.597656 C 13.517209 15.587674 13.533792 15.576718 13.550781 15.566406 C 13.62936 15.518963 13.705681 15.468303 13.779297 15.414062 C 13.862275 15.352924 13.941483 15.287947 14.017578 15.21875 C 14.093634 15.149588 14.165806 15.076602 14.234375 15 C 14.7091 14.469664 15 13.771067 15 13 L 15 8 L 15 6 L 15 3 C 15 1.338 13.662 0 12 0 L 6 0 z M 7 1 L 11.375 1 C 12.82925 1 14 2.17075 14 3.625 L 14 6 L 14 8.875 L 14 12.375 C 14 13.82925 12.82925 15 11.375 15 L 4.625 15 C 3.17075 15 2 13.82925 2 12.375 L 2 6 L 7 6 L 7 1 z M 6 2 L 6 5 L 3 5 L 6 2 z " />
    <rect
       style="fill:#a1a1a1;fill-opacity:1;stroke-width:0.500001;stroke-linecap:round;stroke-linejoin:round"
       id="rect889-3"
       width="4"
       height="1"
       x="8"
       y="8"
       ry="0" />
    <rect
       style="fill:#a1a1a1;fill-opacity:1;stroke-width:0.707108;stroke-linecap:round;stroke-linejoin:round"
       id="rect889-3-36"
       width="8"
       height="1"
       x="4"
       y="11"
       ry="0" />
    <rect
       style="fill:#8f6461;fill-opacity:1;stroke-width:0.25;stroke-linecap:round;stroke-linejoin:round"
       id="rect889-3-36-5-6"
       height="1"
       x="11"
       y="4"
       ry="0"
       width="1" />
    <rect
       style="fill:#3a93bf;fill-opacity:1;stroke-width:0.750002;stroke-linecap:round;stroke-linejoin:round"
       id="rect889-3-3"
       width="3"
       height="3"
       x="3.9999998"
       y="7"
       ry="0" />
    <path
       id="rect889-3-36-3"
       style="fill:#8f6461;fill-opacity:1;stroke-width:0.433013;stroke-linecap:round;stroke-linejoin:round"
       d="m 8,2 v 3 h 1 1 V 4 H 9 V 3 h 1 V 2 H 9 Z" />
  </g>
</svg>
