<?xml version="1.0" encoding="UTF-8" standalone="no"?>
<svg
   width="32"
   height="32"
   viewBox="0 0 32 32"
   version="1.1"
   id="svg5"
   inkscape:version="1.1.1 (3bf5ae0d25, 2021-09-20, custom)"
   sodipodi:docname="folder-music.svg"
   xmlns:inkscape="http://www.inkscape.org/namespaces/inkscape"
   xmlns:sodipodi="http://sodipodi.sourceforge.net/DTD/sodipodi-0.dtd"
   xmlns="http://www.w3.org/2000/svg"
   xmlns:svg="http://www.w3.org/2000/svg"
   xmlns:rdf="http://www.w3.org/1999/02/22-rdf-syntax-ns#"
   xmlns:cc="http://creativecommons.org/ns#"
   xmlns:dc="http://purl.org/dc/elements/1.1/">
  <metadata
     id="metadata11">
    <rdf:RDF>
      <cc:Work
         rdf:about="">
        <dc:format>image/svg+xml</dc:format>
        <dc:type
           rdf:resource="http://purl.org/dc/dcmitype/StillImage" />
      </cc:Work>
    </rdf:RDF>
  </metadata>
  <sodipodi:namedview
     id="namedview7"
     pagecolor="#ffffff"
     bordercolor="#666666"
     borderopacity="1.0"
     inkscape:pageshadow="2"
     inkscape:pageopacity="0.0"
     inkscape:pagecheckerboard="0"
     inkscape:document-units="px"
     showgrid="false"
     inkscape:zoom="6.27747"
     inkscape:cx="3.9028462"
     inkscape:cy="10.03589"
     inkscape:window-width="1366"
     inkscape:window-height="680"
     inkscape:window-x="0"
     inkscape:window-y="0"
     inkscape:window-maximized="1"
     inkscape:current-layer="layer1"
     inkscape:document-rotation="0"
     showguides="false"
     width="32px">
    <inkscape:grid
       type="xygrid"
       id="grid824" />
  </sodipodi:namedview>
  <defs
     id="defs2" />
  <g
     inkscape:label="Capa 1"
     inkscape:groupmode="layer"
     id="layer1">
    <path
       id="rect2298"
       style="fill:#6b2eb0;fill-opacity:1;stroke:none;stroke-width:1.99999;stroke-linecap:round;stroke-linejoin:round"
       d="M 30,2 9.9999994,5.9999991 V 20.996092 C 9.1654835,20.371326 8.1272976,19.999996 6.9999996,19.999996 4.23,19.999996 2,22.229996 2,24.999995 c 0,2.769999 2.23,4.999999 4.9999996,4.999999 2.3817979,0 4.3621834,-1.647982 4.8710934,-3.871093 l 0.1289,-0.1289 v -1 -10.999998 l 16.000001,-1.999999 v 8.996092 c 0,0 -0.004,-0.004 -0.004,-0.004 -0.833666,-0.622672 -1.870688,-0.992094 -2.996,-0.992094 -2.770001,0 -5.000001,2.23 -5.000001,4.999999 0,2.769999 2.23,4.999999 5.000001,4.999999 2.381798,0 4.362184,-1.647982 4.871094,-3.871093 l 0.1289,-0.1289 z" />
  </g>
</svg>
