<?xml version="1.0" encoding="UTF-8" standalone="no"?>
<svg
   width="32"
   height="32"
   viewBox="0 0 32 32"
   version="1.1"
   id="svg5"
   inkscape:version="1.1.1 (3bf5ae0d25, 2021-09-20, custom)"
   sodipodi:docname="folder-documents.svg"
   xmlns:inkscape="http://www.inkscape.org/namespaces/inkscape"
   xmlns:sodipodi="http://sodipodi.sourceforge.net/DTD/sodipodi-0.dtd"
   xmlns="http://www.w3.org/2000/svg"
   xmlns:svg="http://www.w3.org/2000/svg"
   xmlns:rdf="http://www.w3.org/1999/02/22-rdf-syntax-ns#"
   xmlns:cc="http://creativecommons.org/ns#"
   xmlns:dc="http://purl.org/dc/elements/1.1/">
  <metadata
     id="metadata11">
    <rdf:RDF>
      <cc:Work
         rdf:about="">
        <dc:format>image/svg+xml</dc:format>
        <dc:type
           rdf:resource="http://purl.org/dc/dcmitype/StillImage" />
      </cc:Work>
    </rdf:RDF>
  </metadata>
  <sodipodi:namedview
     id="namedview7"
     pagecolor="#ffffff"
     bordercolor="#666666"
     borderopacity="1.0"
     inkscape:pageshadow="2"
     inkscape:pageopacity="0.0"
     inkscape:pagecheckerboard="0"
     inkscape:document-units="px"
     showgrid="false"
     inkscape:zoom="6.2774698"
     inkscape:cx="2.7877474"
     inkscape:cy="11.15099"
     inkscape:window-width="1366"
     inkscape:window-height="680"
     inkscape:window-x="0"
     inkscape:window-y="0"
     inkscape:window-maximized="1"
     inkscape:current-layer="layer1"
     inkscape:document-rotation="0"
     showguides="false"
     width="32px">
    <inkscape:grid
       type="xygrid"
       id="grid824" />
  </sodipodi:namedview>
  <defs
     id="defs2" />
  <g
     inkscape:label="Capa 1"
     inkscape:groupmode="layer"
     id="layer1">
    <path
       id="rect1039"
       style="fill:#a1a1a1;fill-opacity:1;stroke-width:1.99999"
       d="M 12,0 10,2 4,8 2,10 v 16 c 0,3.324 2.676,6 6,6 h 16 c 0.21222,0 0.422642,-0.0138 0.628906,-0.03516 0.07936,-0.0082 0.156,-0.02386 0.234376,-0.03516 0.1363,-0.0196 0.27313,-0.0379 0.40625,-0.0664 0.0543,-0.0116 0.10642,-0.02592 0.16016,-0.03906 0.1473,-0.03582 0.294746,-0.07468 0.4375,-0.1211 0.04908,-0.016 0.09602,-0.03736 0.14452,-0.05468 0.14986,-0.05308 0.297352,-0.10752 0.441406,-0.17188 0.04366,-0.0196 0.08582,-0.04186 0.1289,-0.0625 0.1424,-0.06778 0.282086,-0.14036 0.417968,-0.21875 0.03442,-0.02 0.06758,-0.04188 0.10156,-0.0625 0.15716,-0.09488 0.3098,-0.1962 0.457032,-0.304688 0.16596,-0.12228 0.324372,-0.25223 0.476562,-0.390624 C 28.187268,30.299176 28.331612,30.153204 28.46875,30 29.4182,28.939328 30,27.542134 30,26 V 16 12 6 C 30,2.676 27.324,0 24,0 Z m 2,2 h 8.75 C 25.6585,2 28,4.3415 28,7.25 v 4.75 5.75 7 C 28,27.6585 25.6585,30 22.75,30 H 9.25 C 6.3415,30 4,27.6585 4,24.75 V 12 h 10 z m -2,2 v 6 H 6 Z" />
    <rect
       style="fill:#a1a1a1;fill-opacity:1;stroke-width:1;stroke-linecap:round;stroke-linejoin:round"
       id="rect889-3"
       width="8"
       height="2"
       x="16"
       y="16"
       ry="0" />
    <rect
       style="fill:#a1a1a1;fill-opacity:1;stroke-width:1.41421;stroke-linecap:round;stroke-linejoin:round"
       id="rect889-3-36"
       width="16"
       height="2"
       x="8"
       y="22"
       ry="0" />
    <rect
       style="fill:#8f6461;fill-opacity:1;stroke-width:0.499999;stroke-linecap:round;stroke-linejoin:round"
       id="rect889-3-36-5-6"
       height="2"
       x="22"
       y="8"
       ry="0"
       width="2" />
    <rect
       style="fill:#3a93bf;fill-opacity:1;stroke-width:1.5;stroke-linecap:round;stroke-linejoin:round"
       id="rect889-3-3"
       width="6"
       height="6"
       x="8"
       y="14"
       ry="0" />
    <path
       id="rect889-3-36-3"
       style="fill:#8f6461;fill-opacity:1;stroke-width:0.866026;stroke-linecap:round;stroke-linejoin:round"
       d="m 16,4 v 6 h 2 2 V 8 H 18 V 6 h 2 V 4 h -2 z" />
  </g>
</svg>
