<?xml version="1.0" encoding="UTF-8" standalone="no"?>
<svg
   width="32"
   height="32"
   viewBox="0 0 32 32"
   version="1.1"
   id="svg5"
   inkscape:version="1.1.1 (3bf5ae0d25, 2021-09-20, custom)"
   sodipodi:docname="user-desktop.svg"
   xmlns:inkscape="http://www.inkscape.org/namespaces/inkscape"
   xmlns:sodipodi="http://sodipodi.sourceforge.net/DTD/sodipodi-0.dtd"
   xmlns="http://www.w3.org/2000/svg"
   xmlns:svg="http://www.w3.org/2000/svg"
   xmlns:rdf="http://www.w3.org/1999/02/22-rdf-syntax-ns#"
   xmlns:cc="http://creativecommons.org/ns#"
   xmlns:dc="http://purl.org/dc/elements/1.1/">
  <metadata
     id="metadata11">
    <rdf:RDF>
      <cc:Work
         rdf:about="">
        <dc:format>image/svg+xml</dc:format>
        <dc:type
           rdf:resource="http://purl.org/dc/dcmitype/StillImage" />
      </cc:Work>
    </rdf:RDF>
  </metadata>
  <sodipodi:namedview
     id="namedview7"
     pagecolor="#ffffff"
     bordercolor="#666666"
     borderopacity="1.0"
     inkscape:pageshadow="2"
     inkscape:pageopacity="0.0"
     inkscape:pagecheckerboard="0"
     inkscape:document-units="px"
     showgrid="false"
     inkscape:zoom="8.877683"
     inkscape:cx="16.727338"
     inkscape:cy="13.629682"
     inkscape:window-width="1366"
     inkscape:window-height="680"
     inkscape:window-x="0"
     inkscape:window-y="0"
     inkscape:window-maximized="1"
     inkscape:current-layer="layer1"
     inkscape:document-rotation="0"
     showguides="false"
     width="32px">
    <inkscape:grid
       type="xygrid"
       id="grid824" />
  </sodipodi:namedview>
  <defs
     id="defs2">
    <clipPath
       clipPathUnits="userSpaceOnUse"
       id="clipPath4070">
      <path
         id="path4072"
         style="fill:#4492d0;fill-opacity:1"
         d="M 2,15 C 0.892,15 0,14.108 0,13 V 8 h 16 v 5 c 0,1.108 -0.892,2 -2,2 z" />
    </clipPath>
    <clipPath
       clipPathUnits="userSpaceOnUse"
       id="clipPath4074">
      <path
         id="path4076"
         style="fill:#4492d0;fill-opacity:1"
         d="M 2,15 C 0.892,15 0,14.108 0,13 V 8 h 16 v 5 c 0,1.108 -0.892,2 -2,2 z" />
    </clipPath>
    <clipPath
       clipPathUnits="userSpaceOnUse"
       id="clipPath4078">
      <path
         id="path4080"
         style="fill:#4492d0;fill-opacity:1"
         d="M 2,15 C 0.892,15 0,14.108 0,13 V 8 h 16 v 5 c 0,1.108 -0.892,2 -2,2 z" />
    </clipPath>
  </defs>
  <g
     inkscape:label="Capa 1"
     inkscape:groupmode="layer"
     id="layer1">
    <path
       id="rect2263"
       style="fill:#5eced2;fill-opacity:1;stroke-width:1.99999"
       d="m 4.0000007,1.9999995 c -2.2159998,0 -3.9999996275395,1.784 -3.9999996275395,4.0000001 V 16 H 31.999998 V 5.9999996 c 0,-2.2160001 -1.784,-4.0000001 -4,-4.0000001 z" />
    <path
       id="rect2263-7"
       style="fill:#3c94bc;fill-opacity:1;stroke-width:1.99999"
       d="M 4.0000007,30.000001 C 1.7840009,30.000001 1.0724605e-6,28.216001 1.0724605e-6,26 V 16 H 31.999998 v 10 c 0,2.216001 -1.784,4.000001 -4,4.000001 z" />
    <path
       style="fill:#79e100;fill-opacity:1;stroke:none;stroke-width:1.0865px;stroke-linecap:butt;stroke-linejoin:miter;stroke-opacity:1"
       d="m 4,9 -7,6 H 8 Z"
       id="path2525-5"
       sodipodi:nodetypes="cccc"
       clip-path="url(#clipPath4078)"
       transform="matrix(1.9999998,0,0,2.0000001,1.0724605e-6,-6.086293e-7)" />
    <path
       style="fill:#79e100;fill-opacity:1;stroke:none;stroke-width:1.22474px;stroke-linecap:butt;stroke-linejoin:miter;stroke-opacity:1"
       d="M 14,8 7,15 H 20 Z"
       id="path2525-5-2"
       sodipodi:nodetypes="cccc"
       clip-path="url(#clipPath4074)"
       transform="matrix(1.9999998,0,0,2.0000001,1.0724605e-6,-6.086293e-7)" />
    <path
       style="fill:#77cc15;fill-opacity:1;stroke:none;stroke-width:0.999999px;stroke-linecap:butt;stroke-linejoin:miter;stroke-opacity:1"
       d="M 9,9 3,15 H 15 Z"
       id="path2525-5-6"
       sodipodi:nodetypes="cccc"
       clip-path="url(#clipPath4070)"
       transform="matrix(1.9999998,0,0,2.0000001,1.0724605e-6,-6.086293e-7)" />
    <rect
       style="fill:url(#linearGradient5823);fill-opacity:1;stroke-width:1.36011;stroke-linecap:round;stroke-linejoin:round"
       id="rect5821"
       width="38"
       height="24.000004"
       x="-1.0724607e-06"
       y="6.0862925e-07"
       ry="7.0588217" />
    <path
       id="rect4266"
       style="fill:#232323;fill-opacity:1;stroke-width:1.94029"
       d="m 1.0724605e-6,26 c 0,2.216001 1.7839998275395,4.000001 3.9999996275395,4.000001 H 27.999998 c 2.216,0 4,-1.784 4,-4.000001 z" />
  </g>
</svg>
