<?xml version="1.0" encoding="UTF-8" standalone="no"?>
<svg
   width="32"
   height="32"
   viewBox="0 0 32 32"
   version="1.1"
   id="svg5"
   inkscape:version="1.1.1 (3bf5ae0d25, 2021-09-20, custom)"
   sodipodi:docname="x-office-document-template.svg"
   xmlns:inkscape="http://www.inkscape.org/namespaces/inkscape"
   xmlns:sodipodi="http://sodipodi.sourceforge.net/DTD/sodipodi-0.dtd"
   xmlns="http://www.w3.org/2000/svg"
   xmlns:svg="http://www.w3.org/2000/svg"
   xmlns:rdf="http://www.w3.org/1999/02/22-rdf-syntax-ns#"
   xmlns:cc="http://creativecommons.org/ns#"
   xmlns:dc="http://purl.org/dc/elements/1.1/">
  <metadata
     id="metadata11">
    <rdf:RDF>
      <cc:Work
         rdf:about="">
        <dc:format>image/svg+xml</dc:format>
        <dc:type
           rdf:resource="http://purl.org/dc/dcmitype/StillImage" />
      </cc:Work>
    </rdf:RDF>
  </metadata>
  <sodipodi:namedview
     id="namedview7"
     pagecolor="#ffffff"
     bordercolor="#666666"
     borderopacity="1.0"
     inkscape:pageshadow="2"
     inkscape:pageopacity="0.0"
     inkscape:pagecheckerboard="0"
     inkscape:document-units="px"
     showgrid="false"
     inkscape:zoom="12.55494"
     inkscape:cx="5.6153195"
     inkscape:cy="9.1597411"
     inkscape:window-width="1366"
     inkscape:window-height="680"
     inkscape:window-x="0"
     inkscape:window-y="0"
     inkscape:window-maximized="1"
     inkscape:current-layer="layer1"
     inkscape:document-rotation="0"
     showguides="false">
    <inkscape:grid
       type="xygrid"
       id="grid824" />
  </sodipodi:namedview>
  <defs
     id="defs2" />
  <g
     inkscape:label="Capa 1"
     inkscape:groupmode="layer"
     id="layer1">
    <path
       id="rect929"
       style="fill:#37c5db;fill-opacity:1;stroke-width:2.0755;stroke-linecap:round;stroke-linejoin:round;stroke-dasharray:8.302, 8.302"
       d="M 11,0 9,2 3,8 1,10 v 16 c 0,3.324 2.676,6 6,6 h 6 10 c 1.781866,0 3.371704,-0.774442 4.46875,-2 H 21.75 13 8.25 C 5.3415,30 3,27.6585 3,24.75 V 12 H 13 V 2 h 8.75 C 24.6585,2 27,4.3415 27,7.25 V 12 17.75 L 29,16 V 12 6 C 29,2.676 26.324,0 23,0 Z m 0,4 v 6 H 5 Z" />
    <rect
       style="fill:#e8e8e8;fill-opacity:1;stroke-width:1;stroke-linecap:round;stroke-linejoin:round"
       id="rect889-3"
       width="8"
       height="2"
       x="15"
       y="16"
       ry="0" />
    <rect
       style="fill:#91f31e;fill-opacity:1;stroke-width:1.5;stroke-linecap:round;stroke-linejoin:round"
       id="rect889-3-3"
       width="6"
       height="6"
       x="7"
       y="14"
       ry="0" />
    <path
       id="rect889-3-6"
       style="fill:#e8e8e8;fill-opacity:1;stroke-width:1.41996;stroke-linecap:round;stroke-linejoin:round"
       d="m 7,22 v 2 h 12.507176 l 2.637356,-2 z" />
    <path
       id="path1840"
       style="fill:#37c5db;fill-opacity:1;stroke:none;stroke-width:1.99999px;stroke-linecap:butt;stroke-linejoin:miter;stroke-opacity:1"
       d="M 31,12 7,32 h 24 z m -2,4 V 30 H 13 Z" />
  </g>
</svg>
