<?xml version="1.0" encoding="UTF-8" standalone="no"?>
<!-- Created with Inkscape (http://www.inkscape.org/) -->

<svg
   width="64"
   height="64"
   viewBox="0 0 64 64"
   version="1.1"
   id="svg5"
   inkscape:version="1.1.1 (3bf5ae0d25, 2021-09-20, custom)"
   sodipodi:docname="folder-music.svg"
   xmlns:inkscape="http://www.inkscape.org/namespaces/inkscape"
   xmlns:sodipodi="http://sodipodi.sourceforge.net/DTD/sodipodi-0.dtd"
   xmlns:xlink="http://www.w3.org/1999/xlink"
   xmlns="http://www.w3.org/2000/svg"
   xmlns:svg="http://www.w3.org/2000/svg">
  <sodipodi:namedview
     id="namedview7"
     pagecolor="#ffffff"
     bordercolor="#666666"
     borderopacity="1.0"
     inkscape:pageshadow="2"
     inkscape:pageopacity="0.0"
     inkscape:pagecheckerboard="0"
     inkscape:document-units="px"
     showgrid="false"
     width="64px"
     inkscape:zoom="2.1601563"
     inkscape:cx="27.081374"
     inkscape:cy="39.811934"
     inkscape:window-width="1366"
     inkscape:window-height="680"
     inkscape:window-x="0"
     inkscape:window-y="0"
     inkscape:window-maximized="1"
     inkscape:current-layer="layer1">
    <inkscape:grid
       type="xygrid"
       id="grid846" />
  </sodipodi:namedview>
  <defs
     id="defs2">
    <linearGradient
       inkscape:collect="always"
       id="linearGradient5445">
      <stop
         style="stop-color:#e6e6e6;stop-opacity:1"
         offset="0"
         id="stop5441" />
      <stop
         style="stop-color:#5c5c5c;stop-opacity:1"
         offset="1"
         id="stop5443" />
    </linearGradient>
    <linearGradient
       inkscape:collect="always"
       id="linearGradient5215">
      <stop
         style="stop-color:#3cbcbc;stop-opacity:1"
         offset="0"
         id="stop5211" />
      <stop
         style="stop-color:#1a486c;stop-opacity:1"
         offset="1"
         id="stop5213" />
    </linearGradient>
    <linearGradient
       inkscape:collect="always"
       id="linearGradient1230">
      <stop
         style="stop-color:#37bbb5;stop-opacity:1"
         offset="0"
         id="stop1226" />
      <stop
         style="stop-color:#1c5d8c;stop-opacity:1"
         offset="1"
         id="stop1228" />
    </linearGradient>
    <linearGradient
       inkscape:collect="always"
       xlink:href="#linearGradient5215"
       id="linearGradient1232"
       x1="12.446886"
       y1="-13.291042"
       x2="42.407848"
       y2="34.046745"
       gradientUnits="userSpaceOnUse"
       gradientTransform="matrix(0.90625,0,0,0.90625,3,3)" />
    <linearGradient
       inkscape:collect="always"
       xlink:href="#linearGradient1230"
       id="linearGradient4426"
       gradientUnits="userSpaceOnUse"
       gradientTransform="matrix(0.90625,0,0,0.5625,3,25)"
       x1="20.681898"
       y1="-2.4336591"
       x2="45.334446"
       y2="49.386147" />
    <linearGradient
       inkscape:collect="always"
       xlink:href="#linearGradient5445"
       id="linearGradient5447"
       x1="27.858984"
       y1="11.882657"
       x2="38.284248"
       y2="49.940964"
       gradientUnits="userSpaceOnUse" />
    <filter
       inkscape:collect="always"
       style="color-interpolation-filters:sRGB"
       id="filter6212"
       x="-0.12545689"
       y="-0.1774756"
       width="1.2509138"
       height="1.3549512">
      <feGaussianBlur
         inkscape:collect="always"
         stdDeviation="3.031875"
         id="feGaussianBlur6214" />
    </filter>
    <filter
       inkscape:collect="always"
       style="color-interpolation-filters:sRGB"
       id="filter1191"
       x="-0.075"
       y="-0.075"
       width="1.15"
       height="1.15">
      <feGaussianBlur
         inkscape:collect="always"
         stdDeviation="1.8125"
         id="feGaussianBlur1193" />
    </filter>
    <filter
       inkscape:collect="always"
       style="color-interpolation-filters:sRGB"
       id="filter1520"
       x="-0.14699999"
       y="-0.14699999"
       width="1.294"
       height="1.294">
      <feGaussianBlur
         inkscape:collect="always"
         stdDeviation="2.75625"
         id="feGaussianBlur1522" />
    </filter>
    <clipPath
       clipPathUnits="userSpaceOnUse"
       id="clipPath5163">
      <rect
         style="fill:url(#linearGradient5167);fill-opacity:1;stroke-width:1.16666"
         id="rect5165"
         width="7"
         height="7"
         x="24"
         y="34"
         ry="2.3333333" />
    </clipPath>
    <clipPath
       clipPathUnits="userSpaceOnUse"
       id="clipPath5157">
      <rect
         style="fill:url(#linearGradient5161);fill-opacity:1;stroke-width:1.16666"
         id="rect5159"
         width="7"
         height="7"
         x="24"
         y="34"
         ry="2.3333333" />
    </clipPath>
    <clipPath
       clipPathUnits="userSpaceOnUse"
       id="clipPath5151">
      <rect
         style="fill:url(#linearGradient5155);fill-opacity:1;stroke-width:1.16666"
         id="rect5153"
         width="7"
         height="7"
         x="24"
         y="34"
         ry="2.3333333" />
    </clipPath>
    <linearGradient
       inkscape:collect="always"
       xlink:href="#linearGradient12928"
       id="linearGradient2264"
       x1="34.396969"
       y1="45.694511"
       x2="44"
       y2="56"
       gradientUnits="userSpaceOnUse"
       gradientTransform="matrix(1.0833333,0,0,1,-2.6666672,-7.2021484e-8)" />
    <linearGradient
       inkscape:collect="always"
       id="linearGradient12928">
      <stop
         style="stop-color:#e6e6e6;stop-opacity:1"
         offset="0"
         id="stop12924" />
      <stop
         style="stop-color:#b6b6b6;stop-opacity:1"
         offset="1"
         id="stop12926" />
    </linearGradient>
    <filter
       inkscape:collect="always"
       style="color-interpolation-filters:sRGB"
       id="filter21558"
       x="-0.3"
       y="-0.3"
       width="1.6"
       height="1.6">
      <feGaussianBlur
         inkscape:collect="always"
         stdDeviation="3.25"
         id="feGaussianBlur21560" />
    </filter>
    <linearGradient
       inkscape:collect="always"
       xlink:href="#linearGradient1807"
       id="linearGradient1809"
       x1="25"
       y1="53"
       x2="36"
       y2="37"
       gradientUnits="userSpaceOnUse" />
    <linearGradient
       inkscape:collect="always"
       id="linearGradient1807">
      <stop
         style="stop-color:#5e2e95;stop-opacity:1"
         offset="0"
         id="stop1803" />
      <stop
         style="stop-color:#b13144;stop-opacity:1"
         offset="1"
         id="stop1805" />
    </linearGradient>
    <filter
       inkscape:collect="always"
       style="color-interpolation-filters:sRGB"
       id="filter1202"
       x="-0.20571427"
       y="-0.18000001"
       width="1.4114285"
       height="1.36">
      <feGaussianBlur
         inkscape:collect="always"
         stdDeviation="1.1999999"
         id="feGaussianBlur1204" />
    </filter>
  </defs>
  <g
     inkscape:label="Capa 1"
     inkscape:groupmode="layer"
     id="layer1">
    <rect
       style="fill:#000000;fill-opacity:0.34999999;stroke-width:0.755441;stroke-linecap:round;stroke-linejoin:round;filter:url(#filter1191)"
       id="rect940-7"
       width="58"
       height="58"
       x="3"
       y="3"
       ry="12" />
    <rect
       style="fill:url(#linearGradient1232);fill-opacity:1;stroke-width:0.755441;stroke-linecap:round;stroke-linejoin:round"
       id="rect940"
       width="58"
       height="58"
       x="3"
       y="3"
       ry="12" />
    <rect
       style="fill:#000000;fill-opacity:0.40000001;stroke-width:0.846614;stroke-linecap:round;stroke-linejoin:round;filter:url(#filter1520)"
       id="rect3909-7"
       width="45"
       height="45"
       x="10"
       y="10"
       ry="12" />
    <rect
       style="fill:url(#linearGradient5447);fill-opacity:1;stroke-width:0.846614;stroke-linecap:round;stroke-linejoin:round"
       id="rect3909"
       width="45"
       height="45"
       x="10"
       y="10"
       ry="12" />
    <path
       id="rect940-9-3"
       style="fill:#000000;fill-opacity:0.40000001;stroke-width:0.595166;stroke-linecap:round;stroke-linejoin:round;filter:url(#filter6212)"
       d="M 15,20 C 8.3519998,20 2.9999998,25.352 2.9999998,32 v 1 4 7 5 c 0,6.648 5.352,12 12.0000002,12 h 34 c 6.648,0 12,-5.352 12,-12 V 37 C 61,30.352 55.648,25 49,25 H 34.755859 C 32.581981,21.96918 29.030695,20 25,20 Z" />
    <path
       id="rect940-9"
       style="fill:url(#linearGradient4426);fill-opacity:1;stroke-width:0.595166;stroke-linecap:round;stroke-linejoin:round"
       d="M 15 20 C 8.352 20 3 25.352 3 32 L 3 33 L 3 37 L 3 44 L 3 49 C 3 55.648 8.352 61 15 61 L 49 61 C 55.648 61 61 55.648 61 49 L 61 37 C 61 30.352 55.648 25 49 25 L 34.755859 25 C 32.581981 21.96918 29.030695 20 25 20 L 15 20 z " />
    <rect
       style="fill:#000000;fill-opacity:0.4;stroke-width:0.814091;filter:url(#filter21558)"
       id="rect2047-9"
       width="26"
       height="26"
       x="18.999998"
       y="30"
       ry="13" />
    <rect
       style="fill:url(#linearGradient2264);fill-opacity:1;stroke-width:0.814091"
       id="rect2047"
       width="26"
       height="26"
       x="19"
       y="30"
       ry="13" />
    <path
       id="rect975-7"
       style="fill:#000000;fill-opacity:0.4;filter:url(#filter1202)"
       d="m 39,35 -11,3 v 4 1 3.048828 c -0.161214,-0.03242 -0.328958,-0.04883 -0.5,-0.04883 -1.385,0 -2.5,1.115 -2.5,2.5 0,1.385 1.115,2.5 2.5,2.5 1.385,0 2.5,-1.115 2.5,-2.5 0,-0.101461 -0.0079,-0.200597 -0.01953,-0.298828 v -0.002 C 29.9935,48.13458 30,48.068582 30,47.999998 v -6 l 7,-2 v 6.048828 c -0.161214,-0.03242 -0.328958,-0.04883 -0.5,-0.04883 -1.385,0 -2.5,1.115 -2.5,2.5 0,1.385 1.115,2.5 2.5,2.5 1.385,0 2.5,-1.115 2.5,-2.5 0,-0.101461 -0.0079,-0.200597 -0.01953,-0.298828 v -0.002 C 38.9935,48.134578 39,48.06858 39,47.999996 v -8 z"
       sodipodi:nodetypes="cccccssssccscccssssccscc" />
    <path
       id="rect975"
       style="fill:url(#linearGradient1809);fill-opacity:1"
       d="m 39,35 -11,3 v 4 1 3.048828 c -0.161214,-0.03242 -0.328958,-0.04883 -0.5,-0.04883 -1.385,0 -2.5,1.115 -2.5,2.5 0,1.385 1.115,2.5 2.5,2.5 1.385,0 2.5,-1.115 2.5,-2.5 0,-0.101461 -0.0079,-0.200597 -0.01953,-0.298828 v -0.002 C 29.9935,48.13458 30,48.068582 30,47.999998 v -6 l 7,-2 v 6.048828 c -0.161214,-0.03242 -0.328958,-0.04883 -0.5,-0.04883 -1.385,0 -2.5,1.115 -2.5,2.5 0,1.385 1.115,2.5 2.5,2.5 1.385,0 2.5,-1.115 2.5,-2.5 0,-0.101461 -0.0079,-0.200597 -0.01953,-0.298828 v -0.002 C 38.9935,48.134578 39,48.06858 39,47.999996 v -8 z"
       sodipodi:nodetypes="cccccssssccscccssssccscc" />
  </g>
</svg>
