<?xml version="1.0" encoding="UTF-8" standalone="no"?>
<!-- Created with Inkscape (http://www.inkscape.org/) -->

<svg
   width="64"
   height="64"
   viewBox="0 0 16.933333 16.933334"
   version="1.1"
   id="svg5"
   inkscape:version="1.1.1 (3bf5ae0d25, 2021-09-20, custom)"
   sodipodi:docname="audio-x-generic.svg"
   xmlns:inkscape="http://www.inkscape.org/namespaces/inkscape"
   xmlns:sodipodi="http://sodipodi.sourceforge.net/DTD/sodipodi-0.dtd"
   xmlns:xlink="http://www.w3.org/1999/xlink"
   xmlns="http://www.w3.org/2000/svg"
   xmlns:svg="http://www.w3.org/2000/svg">
  <sodipodi:namedview
     id="namedview7"
     pagecolor="#ffffff"
     bordercolor="#666666"
     borderopacity="1.0"
     inkscape:pageshadow="2"
     inkscape:pageopacity="0.0"
     inkscape:pagecheckerboard="0"
     inkscape:document-units="mm"
     showgrid="false"
     units="px"
     width="64px"
     inkscape:zoom="2.7868022"
     inkscape:cx="27.989069"
     inkscape:cy="40.189433"
     inkscape:window-width="1366"
     inkscape:window-height="707"
     inkscape:window-x="0"
     inkscape:window-y="0"
     inkscape:window-maximized="1"
     inkscape:current-layer="layer1"
     showguides="false">
    <inkscape:grid
       type="xygrid"
       id="grid1027" />
  </sodipodi:namedview>
  <defs
     id="defs2">
    <linearGradient
       inkscape:collect="always"
       id="linearGradient3285">
      <stop
         style="stop-color:#232323;stop-opacity:1"
         offset="0"
         id="stop3281" />
      <stop
         style="stop-color:#444444;stop-opacity:1"
         offset="1"
         id="stop3283" />
    </linearGradient>
    <linearGradient
       inkscape:collect="always"
       id="linearGradient3042">
      <stop
         style="stop-color:#fefefe;stop-opacity:1"
         offset="0"
         id="stop3038" />
      <stop
         style="stop-color:#e5e5e5;stop-opacity:1"
         offset="1"
         id="stop3040" />
    </linearGradient>
    <linearGradient
       inkscape:collect="always"
       id="linearGradient1070">
      <stop
         style="stop-color:#ffffff;stop-opacity:1"
         offset="0"
         id="stop1066" />
      <stop
         style="stop-color:#ededed;stop-opacity:1"
         offset="1"
         id="stop1068" />
    </linearGradient>
    <linearGradient
       inkscape:collect="always"
       xlink:href="#linearGradient1070"
       id="linearGradient1072"
       x1="15.070815"
       y1="14.469007"
       x2="6.4555755"
       y2="5.2417493"
       gradientUnits="userSpaceOnUse"
       gradientTransform="scale(3.7795276)" />
    <linearGradient
       inkscape:collect="always"
       xlink:href="#linearGradient3042"
       id="linearGradient2778"
       gradientUnits="userSpaceOnUse"
       x1="12.123575"
       y1="14.015394"
       x2="6.6464896"
       y2="5.4795327"
       gradientTransform="matrix(0.46000003,0,0,0.41071426,1.000125,0.62366089)" />
    <filter
       inkscape:collect="always"
       style="color-interpolation-filters:sRGB"
       id="filter2873"
       x="-0.3"
       y="-0.3"
       width="1.6"
       height="1.6">
      <feGaussianBlur
         inkscape:collect="always"
         stdDeviation="2.875"
         id="feGaussianBlur2875" />
    </filter>
    <linearGradient
       inkscape:collect="always"
       xlink:href="#linearGradient3285"
       id="linearGradient16716"
       gradientUnits="userSpaceOnUse"
       x1="15.070815"
       y1="14.469007"
       x2="6.4555755"
       y2="5.2417493" />
    <filter
       inkscape:collect="always"
       style="color-interpolation-filters:sRGB"
       id="filter16737"
       x="-0.079499997"
       y="-0.070982143"
       width="1.159"
       height="1.1419643">
      <feGaussianBlur
         inkscape:collect="always"
         stdDeviation="0.43821613"
         id="feGaussianBlur16739" />
    </filter>
    <linearGradient
       inkscape:collect="always"
       xlink:href="#linearGradient1807"
       id="linearGradient1809"
       x1="25"
       y1="53"
       x2="36"
       y2="37"
       gradientUnits="userSpaceOnUse"
       gradientTransform="matrix(0.30238094,0,0,0.29765653,-1.2095235,-1.9513125)" />
    <linearGradient
       inkscape:collect="always"
       id="linearGradient1807">
      <stop
         style="stop-color:#6e1fc7;stop-opacity:1"
         offset="0"
         id="stop1803" />
      <stop
         style="stop-color:#e32f4a;stop-opacity:1"
         offset="1"
         id="stop1805" />
    </linearGradient>
    <filter
       inkscape:collect="always"
       style="color-interpolation-filters:sRGB"
       id="filter1825"
       x="-0.45899981"
       y="-0.40800013"
       width="1.9179996"
       height="1.8160003">
      <feGaussianBlur
         inkscape:collect="always"
         stdDeviation="0.80962482"
         id="feGaussianBlur1827" />
    </filter>
  </defs>
  <g
     inkscape:label="Capa 1"
     inkscape:groupmode="layer"
     id="layer1">
    <path
       id="rect846-9"
       style="fill:url(#linearGradient16716);fill-opacity:1;stroke-width:1.10745;stroke-linecap:round;stroke-linejoin:round;opacity:0.38;filter:url(#filter16737)"
       d="M 7.9374999,1.0583333 1.8520836,7.1437499 V 12.7 c 0,1.75895 1.41605,3.174999 3.1750003,3.174999 H 11.90625 c 1.75895,0 3.175,-1.416049 3.175,-3.174999 V 4.2333333 c 0,-1.75895 -1.41605,-3.175 -3.175,-3.175 z" />
    <path
       id="rect846"
       style="fill:url(#linearGradient1072);fill-opacity:1;stroke-width:4.18564;stroke-linecap:round;stroke-linejoin:round"
       d="M 30 4 L 7 27 L 7 48 C 7 54.648 12.352 60 19 60 L 45 60 C 51.648 60 57 54.648 57 48 L 57 16 C 57 9.3520001 51.648 4 45 4 L 30 4 z "
       transform="scale(0.26458333)" />
    <path
       id="rect846-5-9"
       style="fill:#444444;fill-opacity:0.5;stroke-width:1.86022;stroke-linecap:round;stroke-linejoin:round;filter:url(#filter2873)"
       d="M 30 4 L 29.960938 4.0390625 L 30 4.0390625 L 30 4 z M 30 5 L 28 6.9121094 L 28 9 L 12 25 L 9.0917969 25 L 7 27 L 13.273438 27 L 17.455078 27 L 22.681641 27 C 26.735913 27 30 23.878 30 20 L 30 15 L 30 11 L 30 5 z "
       transform="scale(0.26458333)" />
    <path
       id="rect846-5"
       style="fill:url(#linearGradient2778);fill-opacity:1;stroke-width:0.481364;stroke-linecap:round;stroke-linejoin:round"
       d="M 7.9374998,1.0583333 1.8520833,7.1437499 h 1.8520833 1.0583333 1.3229166 c 1.0260542,0 1.8520833,-0.8260292 1.8520833,-1.8520833 V 3.9687499 2.9104166 Z" />
    <path
       id="rect975-7"
       style="fill:#232323;fill-opacity:0.30000001;stroke-width:0.300009;filter:url(#filter1825)"
       d="M 10.583334,8.4666667 7.2571429,9.3596364 v 1.1906246 0.297657 0.907503 c -0.048743,-0.0096 -0.099474,-0.01454 -0.1511897,-0.01454 -0.4187978,0 -0.7559532,0.331888 -0.7559532,0.744142 0,0.412255 0.3371554,0.744141 0.7559532,0.744141 0.4187969,0 0.7559516,-0.331886 0.7559516,-0.744141 0,-0.0302 -0.0024,-0.0597 -0.006,-0.08894 v -5.95e-4 c 0.0039,-0.01923 0.006,-0.03886 0.006,-0.05929 V 10.55026 L 9.9785718,9.9549474 V 11.75542 c -0.04875,-0.0096 -0.09947,-0.01454 -0.15119,-0.01454 -0.418798,0 -0.755953,0.331887 -0.755953,0.744142 0,0.412254 0.337155,0.74414 0.755953,0.74414 0.4187962,0 0.7559522,-0.331886 0.7559522,-0.74414 0,-0.0302 -0.0024,-0.0597 -0.006,-0.08894 v -5.95e-4 c 0.0039,-0.01923 0.006,-0.03886 0.006,-0.05929 V 9.9549504 Z"
       sodipodi:nodetypes="cccccssssccscccssssccscc" />
    <path
       id="rect975"
       style="fill:url(#linearGradient1809);fill-opacity:1;stroke-width:0.300009"
       d="M 10.583334,8.4666667 7.2571429,9.3596364 v 1.1906246 0.297657 0.907503 c -0.048743,-0.0096 -0.099474,-0.01454 -0.1511897,-0.01454 -0.4187978,0 -0.7559532,0.331888 -0.7559532,0.744142 0,0.412255 0.3371554,0.744141 0.7559532,0.744141 0.4187969,0 0.7559516,-0.331886 0.7559516,-0.744141 0,-0.0302 -0.0024,-0.0597 -0.006,-0.08894 v -5.95e-4 c 0.0039,-0.01923 0.006,-0.03886 0.006,-0.05929 V 10.55026 L 9.9785718,9.9549474 V 11.75542 c -0.04875,-0.0096 -0.09947,-0.01454 -0.15119,-0.01454 -0.418798,0 -0.755953,0.331887 -0.755953,0.744142 0,0.412254 0.337155,0.74414 0.755953,0.74414 0.4187962,0 0.7559522,-0.331886 0.7559522,-0.74414 0,-0.0302 -0.0024,-0.0597 -0.006,-0.08894 v -5.95e-4 c 0.0039,-0.01923 0.006,-0.03886 0.006,-0.05929 V 9.9549504 Z"
       sodipodi:nodetypes="cccccssssccscccssssccscc" />
  </g>
</svg>
