<?xml version="1.0" encoding="UTF-8" standalone="no"?>
<!-- Created with Inkscape (http://www.inkscape.org/) -->

<svg
   width="64"
   height="64"
   viewBox="0 0 16.933333 16.933334"
   version="1.1"
   id="svg5"
   inkscape:version="1.1.1 (3bf5ae0d25, 2021-09-20, custom)"
   sodipodi:docname="x-office-drawing.svg"
   xmlns:inkscape="http://www.inkscape.org/namespaces/inkscape"
   xmlns:sodipodi="http://sodipodi.sourceforge.net/DTD/sodipodi-0.dtd"
   xmlns:xlink="http://www.w3.org/1999/xlink"
   xmlns="http://www.w3.org/2000/svg"
   xmlns:svg="http://www.w3.org/2000/svg">
  <sodipodi:namedview
     id="namedview7"
     pagecolor="#ffffff"
     bordercolor="#666666"
     borderopacity="1.0"
     inkscape:pageshadow="2"
     inkscape:pageopacity="0.0"
     inkscape:pagecheckerboard="0"
     inkscape:document-units="mm"
     showgrid="false"
     units="px"
     width="64px"
     inkscape:zoom="5.5736044"
     inkscape:cx="31.756828"
     inkscape:cy="42.342438"
     inkscape:window-width="1366"
     inkscape:window-height="707"
     inkscape:window-x="0"
     inkscape:window-y="0"
     inkscape:window-maximized="1"
     inkscape:current-layer="layer1"
     showguides="true">
    <inkscape:grid
       type="xygrid"
       id="grid1027" />
  </sodipodi:namedview>
  <defs
     id="defs2">
    <linearGradient
       inkscape:collect="always"
       id="linearGradient3370">
      <stop
         style="stop-color:#000000;stop-opacity:1"
         offset="0"
         id="stop3366" />
      <stop
         style="stop-color:#444444;stop-opacity:1"
         offset="1"
         id="stop3368" />
    </linearGradient>
    <linearGradient
       inkscape:collect="always"
       id="linearGradient1925">
      <stop
         style="stop-color:#834d1f;stop-opacity:1"
         offset="0"
         id="stop1921" />
      <stop
         style="stop-color:#a6730c;stop-opacity:1"
         offset="1"
         id="stop1923" />
    </linearGradient>
    <linearGradient
       inkscape:collect="always"
       id="linearGradient3285">
      <stop
         style="stop-color:#232323;stop-opacity:1"
         offset="0"
         id="stop3281" />
      <stop
         style="stop-color:#444444;stop-opacity:1"
         offset="1"
         id="stop3283" />
    </linearGradient>
    <linearGradient
       inkscape:collect="always"
       id="linearGradient3042">
      <stop
         style="stop-color:#fefefe;stop-opacity:1"
         offset="0"
         id="stop3038" />
      <stop
         style="stop-color:#e5e5e5;stop-opacity:1"
         offset="1"
         id="stop3040" />
    </linearGradient>
    <linearGradient
       inkscape:collect="always"
       id="linearGradient1070">
      <stop
         style="stop-color:#ffffff;stop-opacity:1"
         offset="0"
         id="stop1066" />
      <stop
         style="stop-color:#ededed;stop-opacity:1"
         offset="1"
         id="stop1068" />
    </linearGradient>
    <linearGradient
       inkscape:collect="always"
       xlink:href="#linearGradient1070"
       id="linearGradient1072"
       x1="15.070815"
       y1="14.469007"
       x2="6.4555755"
       y2="5.2417493"
       gradientUnits="userSpaceOnUse"
       gradientTransform="scale(3.7795276)" />
    <linearGradient
       inkscape:collect="always"
       xlink:href="#linearGradient3042"
       id="linearGradient2778"
       gradientUnits="userSpaceOnUse"
       x1="12.123575"
       y1="14.015394"
       x2="6.6464896"
       y2="5.4795327"
       gradientTransform="matrix(0.46000003,0,0,0.41071426,1.000125,0.62366089)" />
    <filter
       inkscape:collect="always"
       style="color-interpolation-filters:sRGB"
       id="filter2873"
       x="-0.3"
       y="-0.3"
       width="1.6"
       height="1.6">
      <feGaussianBlur
         inkscape:collect="always"
         stdDeviation="2.875"
         id="feGaussianBlur2875" />
    </filter>
    <linearGradient
       inkscape:collect="always"
       xlink:href="#linearGradient3285"
       id="linearGradient3768"
       gradientUnits="userSpaceOnUse"
       gradientTransform="matrix(0.57142856,0,0,1,2.4946425,4.2333346)"
       x1="3.96875"
       y1="8.5989579"
       x2="13.229167"
       y2="8.5989579" />
    <linearGradient
       inkscape:collect="always"
       xlink:href="#linearGradient3285"
       id="linearGradient16716"
       gradientUnits="userSpaceOnUse"
       x1="15.070815"
       y1="14.469007"
       x2="6.4555755"
       y2="5.2417493" />
    <filter
       inkscape:collect="always"
       style="color-interpolation-filters:sRGB"
       id="filter16737"
       x="-0.079499997"
       y="-0.070982143"
       width="1.159"
       height="1.1419643">
      <feGaussianBlur
         inkscape:collect="always"
         stdDeviation="0.43821613"
         id="feGaussianBlur16739" />
    </filter>
    <linearGradient
       inkscape:collect="always"
       xlink:href="#linearGradient3042"
       id="linearGradient1489"
       x1="8.2020836"
       y1="10.054167"
       x2="8.7312498"
       y2="10.847917"
       gradientUnits="userSpaceOnUse" />
    <linearGradient
       inkscape:collect="always"
       xlink:href="#linearGradient1925"
       id="linearGradient1927"
       x1="8.2020836"
       y1="9.5249997"
       x2="8.7312498"
       y2="8.4666662"
       gradientUnits="userSpaceOnUse" />
    <linearGradient
       inkscape:collect="always"
       xlink:href="#linearGradient3285"
       id="linearGradient2209"
       gradientUnits="userSpaceOnUse"
       x1="8.2020836"
       y1="10.054167"
       x2="8.7312498"
       y2="10.847917"
       gradientTransform="matrix(3.7795276,0,0,3.7795276,2.5289431e-6,0.99999969)" />
    <linearGradient
       inkscape:collect="always"
       xlink:href="#linearGradient3370"
       id="linearGradient2481"
       x1="8.4666662"
       y1="10.583333"
       x2="8.4666662"
       y2="12.170834"
       gradientUnits="userSpaceOnUse" />
    <linearGradient
       inkscape:collect="always"
       xlink:href="#linearGradient3285"
       id="linearGradient4219"
       x1="7.4083333"
       y1="9.921875"
       x2="11.90625"
       y2="9.921875"
       gradientUnits="userSpaceOnUse"
       gradientTransform="matrix(2.2232519,0,0,2.325863,1.529409,13.923077)" />
    <linearGradient
       inkscape:collect="always"
       xlink:href="#linearGradient3370"
       id="linearGradient4442"
       x1="10.318749"
       y1="10.847917"
       x2="11.906249"
       y2="10.847917"
       gradientUnits="userSpaceOnUse"
       gradientTransform="scale(3.7795276)" />
    <filter
       inkscape:collect="always"
       style="color-interpolation-filters:sRGB"
       id="filter5118"
       x="-0.575"
       y="-0.20294118"
       width="2.15"
       height="1.4058824">
      <feGaussianBlur
         inkscape:collect="always"
         stdDeviation="1.4375"
         id="feGaussianBlur5120" />
    </filter>
    <filter
       inkscape:collect="always"
       style="color-interpolation-filters:sRGB"
       id="filter5203"
       x="-0.3"
       y="-0.3"
       width="1.6"
       height="1.6">
      <feGaussianBlur
         inkscape:collect="always"
         stdDeviation="0.1984375"
         id="feGaussianBlur5205" />
    </filter>
    <filter
       inkscape:collect="always"
       style="color-interpolation-filters:sRGB"
       id="filter5774"
       x="-0.26999997"
       y="-0.33750006"
       width="1.5399999"
       height="1.6750001">
      <feGaussianBlur
         inkscape:collect="always"
         stdDeviation="0.29765621"
         id="feGaussianBlur5776" />
    </filter>
    <filter
       inkscape:collect="always"
       style="color-interpolation-filters:sRGB"
       id="filter5901"
       x="-0.19999999"
       y="-0.6"
       width="1.4"
       height="2.2">
      <feGaussianBlur
         inkscape:collect="always"
         stdDeviation="0.26458333"
         id="feGaussianBlur5903" />
    </filter>
  </defs>
  <g
     inkscape:label="Capa 1"
     inkscape:groupmode="layer"
     id="layer1">
    <path
       id="rect846-9"
       style="fill:url(#linearGradient16716);fill-opacity:1;stroke-width:1.10745;stroke-linecap:round;stroke-linejoin:round;opacity:0.38;filter:url(#filter16737)"
       d="M 7.9374999,1.0583333 1.8520836,7.1437499 V 12.7 c 0,1.75895 1.41605,3.174999 3.1750003,3.174999 H 11.90625 c 1.75895,0 3.175,-1.416049 3.175,-3.174999 V 4.2333333 c 0,-1.75895 -1.41605,-3.175 -3.175,-3.175 z" />
    <path
       id="rect846"
       style="fill:url(#linearGradient1072);fill-opacity:1;stroke-width:4.18564;stroke-linecap:round;stroke-linejoin:round"
       d="M 30 4 L 7 27 L 7 48 C 7 54.648 12.352 60 19 60 L 45 60 C 51.648 60 57 54.648 57 48 L 57 16 C 57 9.3520001 51.648 4 45 4 L 30 4 z "
       transform="scale(0.26458333)" />
    <rect
       style="opacity:1;fill:#828282;fill-opacity:0.2;stroke:none;stroke-width:0.264583;stroke-linecap:round;stroke-linejoin:round;filter:url(#filter5901)"
       id="rect5800"
       width="3.175"
       height="1.0583333"
       x="6.614583"
       y="12.170834"
       ry="0.5291664" />
    <path
       id="rect846-5-9"
       style="fill:#444444;fill-opacity:0.5;stroke-width:1.86022;stroke-linecap:round;stroke-linejoin:round;filter:url(#filter2873)"
       d="M 30 4 L 29.960938 4.0390625 L 30 4.0390625 L 30 4 z M 30 5 L 28 6.9121094 L 28 9 L 12 25 L 9.0917969 25 L 7 27 L 13.273438 27 L 17.455078 27 L 22.681641 27 C 26.735913 27 30 23.878 30 20 L 30 15 L 30 11 L 30 5 z "
       transform="scale(0.26458333)" />
    <path
       id="rect846-5"
       style="fill:url(#linearGradient2778);fill-opacity:1;stroke-width:0.481364;stroke-linecap:round;stroke-linejoin:round"
       d="M 7.9374998,1.0583333 1.8520833,7.1437499 h 1.8520833 1.0583333 1.3229166 c 1.0260542,0 1.8520833,-0.8260292 1.8520833,-1.8520833 V 3.9687499 2.9104166 Z" />
    <rect
       style="fill:url(#linearGradient3768);fill-opacity:1;stroke:none;stroke-width:0.200006"
       id="rect3279-7-3-6-1"
       width="5.291667"
       height="0.26458332"
       x="4.7624998"
       y="12.7"
       ry="0.13229166" />
    <path
       id="rect4112-9"
       style="fill:#444444;fill-opacity:0.40000001;stroke:none;stroke-width:0.159188;stroke-linecap:round;stroke-linejoin:round;filter:url(#filter5774)"
       d="M 5.2508423,8.73125 C 4.9802347,8.73125 4.7625,8.9489846 4.7625,9.2195922 v 1.1399818 c 0,0.270608 0.2177347,0.488342 0.4883423,0.488342 h 1.6691488 c 0.2706076,0 0.4883422,-0.217734 0.4883422,-0.488342 V 9.2195922 C 7.4083333,8.9489846 7.1905987,8.73125 6.9199911,8.73125 Z M 5.3934694,8.9958333 H 6.777364 c 0.2029558,0 0.366386,0.1634302 0.366386,0.3663859 v 0.8547278 c 0,0.202956 -0.1634302,0.366386 -0.366386,0.366386 H 5.3934694 c -0.2029558,0 -0.366386,-0.16343 -0.366386,-0.366386 V 9.3622192 c 0,-0.2029557 0.1634302,-0.3663859 0.366386,-0.3663859 z" />
    <path
       id="rect4112"
       style="opacity:1;fill:url(#linearGradient4219);fill-opacity:1;stroke:none;stroke-width:0.601655;stroke-linecap:round;stroke-linejoin:round"
       d="M 19.845703 33 C 18.822934 33 18 33.822934 18 34.845703 L 18 39.154297 C 18 40.177066 18.822934 41 19.845703 41 L 26.154297 41 C 27.177066 41 28 40.177066 28 39.154297 L 28 34.845703 C 28 33.822934 27.177066 33 26.154297 33 L 19.845703 33 z M 20.384766 34 L 25.615234 34 C 26.382311 34 27 34.617689 27 35.384766 L 27 38.615234 C 27 39.382311 26.382311 40 25.615234 40 L 20.384766 40 C 19.617689 40 19 39.382311 19 38.615234 L 19 35.384766 C 19 34.617689 19.617689 34 20.384766 34 z "
       transform="scale(0.26458333)" />
    <path
       id="rect874-7"
       style="fill:#444444;fill-opacity:0.40000001;stroke-width:0.195271;stroke-linecap:round;stroke-linejoin:round;filter:url(#filter5118)"
       d="m 47,31.025391 c -0.554,0 -1,0.446 -1,1 v 6 c 0,0.182387 0.04819,0.353084 0.132812,0.5 C 46.048282,38.672255 46,38.843193 46,39.025391 v 0.183593 c -1.333433,0.516785 -2,1.999881 -2,2.816407 0,2.000001 2,4.000002 2,6 2.000001,-1.999998 4,-3.999999 4,-6 0,-0.816526 -0.666568,-2.299622 -2,-2.816407 v -0.183593 c 0,-0.182719 -0.04986,-0.352905 -0.134766,-0.5 C 47.950139,38.378295 48,38.208109 48,38.025391 v -6 c 0,-0.554 -0.446,-1 -1,-1 z"
       transform="matrix(0.26458333,0,0,0.26458333,-3.9687498,0.25786546)" />
    <rect
       style="opacity:1;fill:url(#linearGradient1927);stroke-width:0.0516655;stroke-linecap:round;stroke-linejoin:round;fill-opacity:1"
       id="rect874"
       width="0.52916646"
       height="2.116667"
       x="8.2020836"
       y="8.4666662"
       ry="0.26458323" />
    <rect
       style="fill:url(#linearGradient1489);stroke-width:0.036533;stroke-linecap:round;stroke-linejoin:round;fill-opacity:1"
       id="rect874-3"
       width="0.52916646"
       height="1.0583333"
       x="8.2020836"
       y="10.054167"
       ry="0.2645832" />
    <path
       id="rect874-3-5"
       style="fill:url(#linearGradient2209);fill-opacity:1;stroke-width:0.138077;stroke-linecap:round;stroke-linejoin:round"
       d="M 31.974609 39 C 31.432669 39.013638 31 39.454657 31 40 L 31 40.974609 C 31.013638 40.432669 31.454657 40 32 40 C 32.545343 40 32.986362 40.432669 33 40.974609 L 33 40 C 33 39.446 32.554 39 32 39 C 31.991344 39 31.983212 38.999784 31.974609 39 z "
       transform="scale(0.26458333)" />
    <path
       style="fill:url(#linearGradient2481);fill-opacity:1;stroke:none;stroke-width:0.264583px;stroke-linecap:butt;stroke-linejoin:miter;stroke-opacity:1"
       d="m 8.4666666,10.583333 c -0.5291666,0 -0.7937499,0.529167 -0.79375,0.79375 1e-7,0.529167 0.5291667,1.058334 0.5291667,1.5875 0.5291667,-0.529166 1.0583334,-1.058333 1.0583333,-1.5875 1e-7,-0.264583 -0.2645833,-0.79375 -0.79375,-0.79375 z"
       id="path2393"
       sodipodi:nodetypes="ccccc" />
    <path
       id="rect4415-3"
       style="fill:#444444;fill-opacity:0.40000001;stroke:none;stroke-width:0.264583;stroke-linecap:round;stroke-linejoin:round;filter:url(#filter5203)"
       d="m 11.12645,10.054167 c -0.439738,0 -0.79375,0.354013 -0.79375,0.79375 0,0.439738 0.354012,0.79375 0.79375,0.79375 0.439737,0 0.79375,-0.354012 0.79375,-0.79375 0,-0.439737 -0.354013,-0.79375 -0.79375,-0.79375 z M 11.1125,10.31875 c 0.0046,-1.14e-4 0.0094,0 0.01395,0 0.293158,0 0.529167,0.236009 0.529167,0.529167 0,0.293158 -0.236009,0.529167 -0.529167,0.529167 -0.293158,0 -0.529167,-0.236009 -0.529167,-0.529167 0,-0.288578 0.228438,-0.52195 0.515214,-0.529167 z" />
    <path
       id="rect4415"
       style="opacity:1;fill:url(#linearGradient4442);fill-opacity:1;stroke:none;stroke-width:0.999999;stroke-linecap:round;stroke-linejoin:round"
       d="M 42 38 C 40.338 38 39 39.338 39 41 C 39 42.662 40.338 44 42 44 C 43.662 44 45 42.662 45 41 C 45 39.338 43.662 38 42 38 z M 41.947266 39 C 41.96447 38.999567 41.982688 39 42 39 C 43.108 39 44 39.892 44 41 C 44 42.108 43.108 43 42 43 C 40.892 43 40 42.108 40 41 C 40 39.909313 40.863385 39.027277 41.947266 39 z "
       transform="scale(0.26458333)" />
  </g>
</svg>
