<?xml version="1.0" encoding="UTF-8" standalone="no"?>
<!-- Created with Inkscape (http://www.inkscape.org/) -->

<svg
   width="64"
   height="64"
   viewBox="0 0 16.933333 16.933334"
   version="1.1"
   id="svg5"
   inkscape:version="1.1.1 (3bf5ae0d25, 2021-09-20, custom)"
   sodipodi:docname="x-office-drawing-template.svg"
   xmlns:inkscape="http://www.inkscape.org/namespaces/inkscape"
   xmlns:sodipodi="http://sodipodi.sourceforge.net/DTD/sodipodi-0.dtd"
   xmlns:xlink="http://www.w3.org/1999/xlink"
   xmlns="http://www.w3.org/2000/svg"
   xmlns:svg="http://www.w3.org/2000/svg">
  <sodipodi:namedview
     id="namedview7"
     pagecolor="#ffffff"
     bordercolor="#666666"
     borderopacity="1.0"
     inkscape:pageshadow="2"
     inkscape:pageopacity="0.0"
     inkscape:pagecheckerboard="0"
     inkscape:document-units="mm"
     showgrid="false"
     units="px"
     width="64px"
     inkscape:zoom="3.9411335"
     inkscape:cx="38.060117"
     inkscape:cy="42.627331"
     inkscape:window-width="1366"
     inkscape:window-height="707"
     inkscape:window-x="0"
     inkscape:window-y="0"
     inkscape:window-maximized="1"
     inkscape:current-layer="layer1"
     showguides="true">
    <inkscape:grid
       type="xygrid"
       id="grid1027" />
  </sodipodi:namedview>
  <defs
     id="defs2">
    <linearGradient
       inkscape:collect="always"
       id="linearGradient3370">
      <stop
         style="stop-color:#000000;stop-opacity:1"
         offset="0"
         id="stop3366" />
      <stop
         style="stop-color:#444444;stop-opacity:1"
         offset="1"
         id="stop3368" />
    </linearGradient>
    <linearGradient
       inkscape:collect="always"
       id="linearGradient1925">
      <stop
         style="stop-color:#834d1f;stop-opacity:1"
         offset="0"
         id="stop1921" />
      <stop
         style="stop-color:#a6730c;stop-opacity:1"
         offset="1"
         id="stop1923" />
    </linearGradient>
    <linearGradient
       inkscape:collect="always"
       id="linearGradient3285">
      <stop
         style="stop-color:#232323;stop-opacity:1"
         offset="0"
         id="stop3281" />
      <stop
         style="stop-color:#444444;stop-opacity:1"
         offset="1"
         id="stop3283" />
    </linearGradient>
    <linearGradient
       inkscape:collect="always"
       id="linearGradient3042">
      <stop
         style="stop-color:#fefefe;stop-opacity:1"
         offset="0"
         id="stop3038" />
      <stop
         style="stop-color:#e5e5e5;stop-opacity:1"
         offset="1"
         id="stop3040" />
    </linearGradient>
    <linearGradient
       inkscape:collect="always"
       id="linearGradient1070">
      <stop
         style="stop-color:#ffffff;stop-opacity:1"
         offset="0"
         id="stop1066" />
      <stop
         style="stop-color:#ededed;stop-opacity:1"
         offset="1"
         id="stop1068" />
    </linearGradient>
    <linearGradient
       inkscape:collect="always"
       xlink:href="#linearGradient1070"
       id="linearGradient1072"
       x1="15.070815"
       y1="14.469007"
       x2="6.4555755"
       y2="5.2417493"
       gradientUnits="userSpaceOnUse"
       gradientTransform="scale(3.7795276)" />
    <linearGradient
       inkscape:collect="always"
       xlink:href="#linearGradient3042"
       id="linearGradient2778"
       gradientUnits="userSpaceOnUse"
       x1="12.123575"
       y1="14.015394"
       x2="6.6464896"
       y2="5.4795327"
       gradientTransform="matrix(0.46000003,0,0,0.41071426,1.000125,0.62366089)" />
    <filter
       inkscape:collect="always"
       style="color-interpolation-filters:sRGB"
       id="filter2873"
       x="-0.3"
       y="-0.3"
       width="1.6"
       height="1.6">
      <feGaussianBlur
         inkscape:collect="always"
         stdDeviation="2.875"
         id="feGaussianBlur2875" />
    </filter>
    <linearGradient
       inkscape:collect="always"
       xlink:href="#linearGradient3285"
       id="linearGradient3768"
       gradientUnits="userSpaceOnUse"
       gradientTransform="matrix(0.57142856,0,0,1,2.4946425,4.2333346)"
       x1="3.96875"
       y1="8.5989579"
       x2="13.229167"
       y2="8.5989579" />
    <linearGradient
       inkscape:collect="always"
       xlink:href="#linearGradient3285"
       id="linearGradient16716"
       gradientUnits="userSpaceOnUse"
       x1="15.070815"
       y1="14.469007"
       x2="6.4555755"
       y2="5.2417493" />
    <filter
       inkscape:collect="always"
       style="color-interpolation-filters:sRGB"
       id="filter16737"
       x="-0.079499997"
       y="-0.070982143"
       width="1.159"
       height="1.1419643">
      <feGaussianBlur
         inkscape:collect="always"
         stdDeviation="0.43821613"
         id="feGaussianBlur16739" />
    </filter>
    <linearGradient
       inkscape:collect="always"
       xlink:href="#linearGradient3042"
       id="linearGradient1489"
       x1="8.2020836"
       y1="10.054167"
       x2="8.7312498"
       y2="10.847917"
       gradientUnits="userSpaceOnUse" />
    <linearGradient
       inkscape:collect="always"
       xlink:href="#linearGradient1925"
       id="linearGradient1927"
       x1="8.2020836"
       y1="9.5249997"
       x2="8.7312498"
       y2="8.4666662"
       gradientUnits="userSpaceOnUse" />
    <linearGradient
       inkscape:collect="always"
       xlink:href="#linearGradient3285"
       id="linearGradient2209"
       gradientUnits="userSpaceOnUse"
       x1="8.2020836"
       y1="10.054167"
       x2="8.7312498"
       y2="10.847917"
       gradientTransform="matrix(3.7795276,0,0,3.7795276,2.5289431e-6,0.99999969)" />
    <linearGradient
       inkscape:collect="always"
       xlink:href="#linearGradient3370"
       id="linearGradient2481"
       x1="8.4666662"
       y1="10.583333"
       x2="8.4666662"
       y2="12.170834"
       gradientUnits="userSpaceOnUse" />
    <linearGradient
       inkscape:collect="always"
       xlink:href="#linearGradient3285"
       id="linearGradient4219"
       x1="7.4083333"
       y1="9.921875"
       x2="11.90625"
       y2="9.921875"
       gradientUnits="userSpaceOnUse"
       gradientTransform="matrix(2.2232519,0,0,2.325863,1.529409,13.923077)" />
    <linearGradient
       inkscape:collect="always"
       xlink:href="#linearGradient3370"
       id="linearGradient4442"
       x1="10.318749"
       y1="10.847917"
       x2="11.906249"
       y2="10.847917"
       gradientUnits="userSpaceOnUse"
       gradientTransform="scale(3.7795276)" />
    <filter
       inkscape:collect="always"
       style="color-interpolation-filters:sRGB"
       id="filter5118"
       x="-0.575"
       y="-0.20294118"
       width="2.15"
       height="1.4058824">
      <feGaussianBlur
         inkscape:collect="always"
         stdDeviation="1.4375"
         id="feGaussianBlur5120" />
    </filter>
    <filter
       inkscape:collect="always"
       style="color-interpolation-filters:sRGB"
       id="filter5203"
       x="-0.3"
       y="-0.3"
       width="1.6"
       height="1.6">
      <feGaussianBlur
         inkscape:collect="always"
         stdDeviation="0.1984375"
         id="feGaussianBlur5205" />
    </filter>
    <filter
       inkscape:collect="always"
       style="color-interpolation-filters:sRGB"
       id="filter5774"
       x="-0.26999997"
       y="-0.33750006"
       width="1.5399999"
       height="1.6750001">
      <feGaussianBlur
         inkscape:collect="always"
         stdDeviation="0.29765621"
         id="feGaussianBlur5776" />
    </filter>
    <filter
       inkscape:collect="always"
       style="color-interpolation-filters:sRGB"
       id="filter5901"
       x="-0.19999999"
       y="-0.6"
       width="1.4"
       height="2.2">
      <feGaussianBlur
         inkscape:collect="always"
         stdDeviation="0.26458333"
         id="feGaussianBlur5903" />
    </filter>
    <filter
       inkscape:collect="always"
       style="color-interpolation-filters:sRGB"
       id="filter5901-3"
       x="-1.0548995"
       y="-3.1646988"
       width="3.1097991"
       height="7.3293975">
      <feGaussianBlur
         inkscape:collect="always"
         stdDeviation="1.3955442"
         id="feGaussianBlur5903-5" />
    </filter>
    <filter
       inkscape:collect="always"
       style="color-interpolation-filters:sRGB"
       id="filter5774-9"
       x="-1.2658796"
       y="-1.58235"
       width="3.5317592"
       height="4.1647">
      <feGaussianBlur
         inkscape:collect="always"
         stdDeviation="1.3955442"
         id="feGaussianBlur5776-1" />
    </filter>
    <filter
       inkscape:collect="always"
       style="color-interpolation-filters:sRGB"
       id="filter5118-2"
       x="-2.1097992"
       y="-0.74463501"
       width="5.2195984"
       height="2.48927">
      <feGaussianBlur
         inkscape:collect="always"
         stdDeviation="5.2744978"
         id="feGaussianBlur5120-7" />
    </filter>
    <filter
       inkscape:collect="always"
       style="color-interpolation-filters:sRGB"
       id="filter5203-2"
       x="-2.1097991"
       y="-2.1097991"
       width="5.2195981"
       height="5.2195981">
      <feGaussianBlur
         inkscape:collect="always"
         stdDeviation="1.3955442"
         id="feGaussianBlur5205-6" />
    </filter>
    <linearGradient
       inkscape:collect="always"
       xlink:href="#linearGradient1070"
       id="linearGradient1410"
       gradientUnits="userSpaceOnUse"
       x1="15.070815"
       y1="14.469007"
       x2="6.4555755"
       y2="5.2417493" />
    <linearGradient
       inkscape:collect="always"
       xlink:href="#linearGradient3285"
       id="linearGradient1412"
       gradientUnits="userSpaceOnUse"
       gradientTransform="matrix(0.57142856,0,0,1,2.4946419,4.2333353)"
       x1="3.96875"
       y1="8.5989579"
       x2="13.229167"
       y2="8.5989579" />
    <linearGradient
       inkscape:collect="always"
       xlink:href="#linearGradient3285"
       id="linearGradient1414"
       gradientUnits="userSpaceOnUse"
       gradientTransform="matrix(0.58823539,0,0,0.61538458,0.40465592,3.6838143)"
       x1="7.4083333"
       y1="9.921875"
       x2="11.90625"
       y2="9.921875" />
    <linearGradient
       inkscape:collect="always"
       xlink:href="#linearGradient1925"
       id="linearGradient1416"
       gradientUnits="userSpaceOnUse"
       x1="8.2020836"
       y1="9.5249997"
       x2="8.7312498"
       y2="8.4666662" />
    <linearGradient
       inkscape:collect="always"
       xlink:href="#linearGradient3042"
       id="linearGradient1418"
       gradientUnits="userSpaceOnUse"
       x1="8.2020836"
       y1="10.054167"
       x2="8.7312498"
       y2="10.847917" />
    <linearGradient
       inkscape:collect="always"
       xlink:href="#linearGradient3285"
       id="linearGradient1420"
       gradientUnits="userSpaceOnUse"
       gradientTransform="translate(9e-7,0.2645833)"
       x1="8.2020836"
       y1="10.054167"
       x2="8.7312498"
       y2="10.847917" />
    <linearGradient
       inkscape:collect="always"
       xlink:href="#linearGradient3370"
       id="linearGradient1422"
       gradientUnits="userSpaceOnUse"
       x1="8.4666662"
       y1="10.583333"
       x2="8.4666662"
       y2="12.170834" />
    <linearGradient
       inkscape:collect="always"
       xlink:href="#linearGradient3370"
       id="linearGradient1424"
       gradientUnits="userSpaceOnUse"
       x1="10.318749"
       y1="10.847917"
       x2="11.906249"
       y2="10.847917" />
    <filter
       inkscape:collect="always"
       style="color-interpolation-filters:sRGB"
       id="filter1676"
       x="-0.25317588"
       y="-0.2260499"
       width="1.5063518"
       height="1.4520998">
      <feGaussianBlur
         inkscape:collect="always"
         stdDeviation="1.3955442"
         id="feGaussianBlur1678" />
    </filter>
    <filter
       inkscape:collect="always"
       style="color-interpolation-filters:sRGB"
       id="filter1680"
       x="-0.63293968"
       y="-12.658795"
       width="2.2658794"
       height="26.31759">
      <feGaussianBlur
         inkscape:collect="always"
         stdDeviation="1.3955442"
         id="feGaussianBlur1682" />
    </filter>
    <filter
       inkscape:collect="always"
       style="color-interpolation-filters:sRGB"
       id="filter1684"
       x="-1.2658796"
       y="-1.5823493"
       width="3.5317592"
       height="4.1646985">
      <feGaussianBlur
         inkscape:collect="always"
         stdDeviation="1.3955442"
         id="feGaussianBlur1686" />
    </filter>
    <filter
       inkscape:collect="always"
       style="color-interpolation-filters:sRGB"
       id="filter1688"
       x="-6.3293997"
       y="-1.582349"
       width="13.658799"
       height="4.164698">
      <feGaussianBlur
         inkscape:collect="always"
         stdDeviation="1.3955442"
         id="feGaussianBlur1690" />
    </filter>
    <filter
       inkscape:collect="always"
       style="color-interpolation-filters:sRGB"
       id="filter1692"
       x="-6.3293997"
       y="-3.1646988"
       width="13.658799"
       height="7.3293975">
      <feGaussianBlur
         inkscape:collect="always"
         stdDeviation="1.3955442"
         id="feGaussianBlur1694" />
    </filter>
    <filter
       inkscape:collect="always"
       style="color-interpolation-filters:sRGB"
       id="filter1696"
       x="-6.3293932"
       y="-6.4104822"
       width="13.658786"
       height="13.820964">
      <feGaussianBlur
         inkscape:collect="always"
         stdDeviation="1.3955442"
         id="feGaussianBlur1698" />
    </filter>
    <filter
       inkscape:collect="always"
       style="color-interpolation-filters:sRGB"
       id="filter1700"
       x="-2.1097991"
       y="-1.4065327"
       width="5.2195981"
       height="3.8130654">
      <feGaussianBlur
         inkscape:collect="always"
         stdDeviation="1.3955442"
         id="feGaussianBlur1702" />
    </filter>
    <filter
       inkscape:collect="always"
       style="color-interpolation-filters:sRGB"
       id="filter1704"
       x="-2.1097991"
       y="-2.1097991"
       width="5.2195981"
       height="5.2195981">
      <feGaussianBlur
         inkscape:collect="always"
         stdDeviation="1.3955442"
         id="feGaussianBlur1706" />
    </filter>
    <filter
       inkscape:collect="always"
       style="color-interpolation-filters:sRGB"
       id="filter1708"
       x="-0.19052494"
       y="-0.19349807"
       width="1.3810499"
       height="1.3869961">
      <feGaussianBlur
         inkscape:collect="always"
         stdDeviation="1.3955442"
         id="feGaussianBlur1710" />
    </filter>
    <clipPath
       clipPathUnits="userSpaceOnUse"
       id="clipPath1712">
      <path
         id="path1714"
         style="opacity:1;fill:#000000;fill-opacity:1;stroke:none;stroke-width:0.264583px;stroke-linecap:butt;stroke-linejoin:miter;stroke-opacity:1"
         d="M 15.875001,7.14375 5.2916667,16.139583 H 15.875001 Z m -0.79375,2.1166669 V 15.345833 H 8.2020836 Z" />
    </clipPath>
    <clipPath
       clipPathUnits="userSpaceOnUse"
       id="clipPath1716">
      <path
         id="path1718"
         style="opacity:1;fill:#000000;fill-opacity:1;stroke:none;stroke-width:0.264583px;stroke-linecap:butt;stroke-linejoin:miter;stroke-opacity:1"
         d="M 15.875001,7.14375 5.2916667,16.139583 H 15.875001 Z m -0.79375,2.1166669 V 15.345833 H 8.2020836 Z" />
    </clipPath>
    <clipPath
       clipPathUnits="userSpaceOnUse"
       id="clipPath1720">
      <path
         id="path1722"
         style="opacity:1;fill:#000000;fill-opacity:1;stroke:none;stroke-width:0.264583px;stroke-linecap:butt;stroke-linejoin:miter;stroke-opacity:1"
         d="M 15.875001,7.14375 5.2916667,16.139583 H 15.875001 Z m -0.79375,2.1166669 V 15.345833 H 8.2020836 Z" />
    </clipPath>
    <clipPath
       clipPathUnits="userSpaceOnUse"
       id="clipPath1724">
      <path
         id="path1726"
         style="opacity:1;fill:#000000;fill-opacity:1;stroke:none;stroke-width:0.264583px;stroke-linecap:butt;stroke-linejoin:miter;stroke-opacity:1"
         d="M 15.875001,7.14375 5.2916667,16.139583 H 15.875001 Z m -0.79375,2.1166669 V 15.345833 H 8.2020836 Z" />
    </clipPath>
    <clipPath
       clipPathUnits="userSpaceOnUse"
       id="clipPath1728">
      <path
         id="path1730"
         style="opacity:1;fill:#000000;fill-opacity:1;stroke:none;stroke-width:0.264583px;stroke-linecap:butt;stroke-linejoin:miter;stroke-opacity:1"
         d="M 15.875001,7.14375 5.2916667,16.139583 H 15.875001 Z m -0.79375,2.1166669 V 15.345833 H 8.2020836 Z" />
    </clipPath>
    <clipPath
       clipPathUnits="userSpaceOnUse"
       id="clipPath1732">
      <path
         id="path1734"
         style="opacity:1;fill:#000000;fill-opacity:1;stroke:none;stroke-width:0.264583px;stroke-linecap:butt;stroke-linejoin:miter;stroke-opacity:1"
         d="M 15.875001,7.14375 5.2916667,16.139583 H 15.875001 Z m -0.79375,2.1166669 V 15.345833 H 8.2020836 Z" />
    </clipPath>
    <clipPath
       clipPathUnits="userSpaceOnUse"
       id="clipPath1736">
      <path
         id="path1738"
         style="opacity:1;fill:#000000;fill-opacity:1;stroke:none;stroke-width:0.999999px;stroke-linecap:butt;stroke-linejoin:miter;stroke-opacity:1"
         d="m 75.000005,26.025391 -40.000004,34 h 40.000004 z m -3,8.000001 V 57.025391 H 46.000002 Z" />
    </clipPath>
    <clipPath
       clipPathUnits="userSpaceOnUse"
       id="clipPath1740">
      <path
         id="path1742"
         style="opacity:1;fill:#000000;fill-opacity:1;stroke:none;stroke-width:0.264583px;stroke-linecap:butt;stroke-linejoin:miter;stroke-opacity:1"
         d="M 15.875001,7.14375 5.2916667,16.139583 H 15.875001 Z m -0.79375,2.1166669 V 15.345833 H 8.2020836 Z" />
    </clipPath>
    <clipPath
       clipPathUnits="userSpaceOnUse"
       id="clipPath1744">
      <path
         id="path1746"
         style="opacity:1;fill:#000000;fill-opacity:1;stroke:none;stroke-width:0.264583px;stroke-linecap:butt;stroke-linejoin:miter;stroke-opacity:1"
         d="M 15.875001,7.14375 5.2916667,16.139583 H 15.875001 Z m -0.79375,2.1166669 V 15.345833 H 8.2020836 Z" />
    </clipPath>
    <clipPath
       clipPathUnits="userSpaceOnUse"
       id="clipPath1748">
      <path
         id="path1750"
         style="opacity:1;fill:#000000;fill-opacity:1;stroke:none;stroke-width:0.264583px;stroke-linecap:butt;stroke-linejoin:miter;stroke-opacity:1"
         d="M 15.875001,7.14375 5.2916667,16.139583 H 15.875001 Z m -0.79375,2.1166669 V 15.345833 H 8.2020836 Z" />
    </clipPath>
    <clipPath
       clipPathUnits="userSpaceOnUse"
       id="clipPath1752">
      <path
         id="path1754"
         style="opacity:1;fill:#000000;fill-opacity:1;stroke:none;stroke-width:0.264583px;stroke-linecap:butt;stroke-linejoin:miter;stroke-opacity:1"
         d="M 15.875001,7.14375 5.2916667,16.139583 H 15.875001 Z m -0.79375,2.1166669 V 15.345833 H 8.2020836 Z" />
    </clipPath>
    <clipPath
       clipPathUnits="userSpaceOnUse"
       id="clipPath1756">
      <path
         id="path1758"
         style="opacity:1;fill:#000000;fill-opacity:1;stroke:none;stroke-width:0.264583px;stroke-linecap:butt;stroke-linejoin:miter;stroke-opacity:1"
         d="M 15.875001,7.14375 5.2916667,16.139583 H 15.875001 Z m -0.79375,2.1166669 V 15.345833 H 8.2020836 Z" />
    </clipPath>
    <clipPath
       clipPathUnits="userSpaceOnUse"
       id="clipPath1760">
      <path
         id="path1762"
         style="opacity:1;fill:#000000;fill-opacity:1;stroke:none;stroke-width:0.264583px;stroke-linecap:butt;stroke-linejoin:miter;stroke-opacity:1"
         d="M 15.875001,7.14375 5.2916667,16.139583 H 15.875001 Z m -0.79375,2.1166669 V 15.345833 H 8.2020836 Z" />
    </clipPath>
    <filter
       inkscape:collect="always"
       style="color-interpolation-filters:sRGB"
       id="filter1977"
       x="-0.087023983"
       y="-0.10238119"
       width="1.174048"
       height="1.2047624">
      <feGaussianBlur
         inkscape:collect="always"
         stdDeviation="0.3837517"
         id="feGaussianBlur1979" />
    </filter>
  </defs>
  <g
     inkscape:label="Capa 1"
     inkscape:groupmode="layer"
     id="layer1">
    <path
       id="rect846-9"
       style="fill:url(#linearGradient16716);fill-opacity:1;stroke-width:1.10745;stroke-linecap:round;stroke-linejoin:round;opacity:0.38;filter:url(#filter16737)"
       d="M 7.9374999,1.0583333 1.8520836,7.1437499 V 12.7 c 0,1.75895 1.41605,3.174999 3.1750003,3.174999 H 11.90625 c 1.75895,0 3.175,-1.416049 3.175,-3.174999 V 4.2333333 c 0,-1.75895 -1.41605,-3.175 -3.175,-3.175 z" />
    <path
       id="rect846"
       style="fill:url(#linearGradient1072);fill-opacity:1;stroke-width:4.18564;stroke-linecap:round;stroke-linejoin:round"
       d="M 30,4 7,27 v 21 c 0,6.648 5.352,12 12,12 h 26 c 6.648,0 12,-5.352 12,-12 V 16 C 57,9.3520001 51.648,4 45,4 Z"
       transform="scale(0.26458333)"
       sodipodi:insensitive="true" />
    <rect
       style="opacity:1;fill:#828282;fill-opacity:0.2;stroke:none;stroke-width:0.264583;stroke-linecap:round;stroke-linejoin:round;filter:url(#filter5901)"
       id="rect5800"
       width="3.175"
       height="1.0583333"
       x="6.614583"
       y="12.170834"
       ry="0.5291664"
       sodipodi:insensitive="true" />
    <path
       id="rect846-5-9"
       style="fill:#444444;fill-opacity:0.5;stroke-width:1.86022;stroke-linecap:round;stroke-linejoin:round;filter:url(#filter2873)"
       d="m 30,4 -0.03906,0.039063 H 30 Z m 0,1 -2,1.9121094 V 9 L 12,25 H 9.0917969 L 7,27 h 6.273438 4.18164 5.226563 C 26.735913,27 30,23.878 30,20 v -5 -4 z"
       transform="scale(0.26458333)"
       sodipodi:insensitive="true" />
    <path
       id="rect846-5"
       style="fill:url(#linearGradient2778);fill-opacity:1;stroke-width:0.481364;stroke-linecap:round;stroke-linejoin:round"
       d="M 7.9374998,1.0583333 1.8520833,7.1437499 h 1.8520833 1.0583333 1.3229166 c 1.0260542,0 1.8520833,-0.8260292 1.8520833,-1.8520833 V 3.9687499 2.9104166 Z"
       sodipodi:insensitive="true" />
    <rect
       style="fill:url(#linearGradient3768);fill-opacity:1;stroke:none;stroke-width:0.200006"
       id="rect3279-7-3-6-1"
       width="5.291667"
       height="0.26458332"
       x="4.7624998"
       y="12.7"
       ry="0.13229166"
       sodipodi:insensitive="true" />
    <path
       id="rect4112-9"
       style="fill:#444444;fill-opacity:0.4;stroke:none;stroke-width:0.159188;stroke-linecap:round;stroke-linejoin:round;filter:url(#filter5774)"
       d="M 5.2508423,8.73125 C 4.9802347,8.73125 4.7625,8.9489846 4.7625,9.2195922 v 1.1399818 c 0,0.270608 0.2177347,0.488342 0.4883423,0.488342 h 1.6691488 c 0.2706076,0 0.4883422,-0.217734 0.4883422,-0.488342 V 9.2195922 C 7.4083333,8.9489846 7.1905987,8.73125 6.9199911,8.73125 Z M 5.3934694,8.9958333 H 6.777364 c 0.2029558,0 0.366386,0.1634302 0.366386,0.3663859 v 0.8547278 c 0,0.202956 -0.1634302,0.366386 -0.366386,0.366386 H 5.3934694 c -0.2029558,0 -0.366386,-0.16343 -0.366386,-0.366386 V 9.3622192 c 0,-0.2029557 0.1634302,-0.3663859 0.366386,-0.3663859 z"
       sodipodi:insensitive="true" />
    <path
       id="rect4112"
       style="opacity:1;fill:url(#linearGradient4219);fill-opacity:1;stroke:none;stroke-width:0.601655;stroke-linecap:round;stroke-linejoin:round"
       d="M 19.845703,33 C 18.822934,33 18,33.822934 18,34.845703 v 4.308594 C 18,40.177066 18.822934,41 19.845703,41 h 6.308594 C 27.177066,41 28,40.177066 28,39.154297 V 34.845703 C 28,33.822934 27.177066,33 26.154297,33 Z m 0.539063,1 h 5.230468 C 26.382311,34 27,34.617689 27,35.384766 v 3.230468 C 27,39.382311 26.382311,40 25.615234,40 H 20.384766 C 19.617689,40 19,39.382311 19,38.615234 V 35.384766 C 19,34.617689 19.617689,34 20.384766,34 Z"
       transform="scale(0.26458333)"
       sodipodi:insensitive="true" />
    <path
       id="rect874-7"
       style="fill:#444444;fill-opacity:0.4;stroke-width:0.195271;stroke-linecap:round;stroke-linejoin:round;filter:url(#filter5118)"
       d="m 47,31.025391 c -0.554,0 -1,0.446 -1,1 v 6 c 0,0.182387 0.04819,0.353084 0.132812,0.5 C 46.048282,38.672255 46,38.843193 46,39.025391 v 0.183593 c -1.333433,0.516785 -2,1.999881 -2,2.816407 0,2.000001 2,4.000002 2,6 2.000001,-1.999998 4,-3.999999 4,-6 0,-0.816526 -0.666568,-2.299622 -2,-2.816407 v -0.183593 c 0,-0.182719 -0.04986,-0.352905 -0.134766,-0.5 C 47.950139,38.378295 48,38.208109 48,38.025391 v -6 c 0,-0.554 -0.446,-1 -1,-1 z"
       transform="matrix(0.26458333,0,0,0.26458333,-3.9687498,0.25786546)"
       sodipodi:insensitive="true" />
    <rect
       style="opacity:1;fill:url(#linearGradient1927);fill-opacity:1;stroke-width:0.0516655;stroke-linecap:round;stroke-linejoin:round"
       id="rect874"
       width="0.52916646"
       height="2.116667"
       x="8.2020836"
       y="8.4666662"
       ry="0.26458323"
       sodipodi:insensitive="true" />
    <rect
       style="fill:url(#linearGradient1489);fill-opacity:1;stroke-width:0.036533;stroke-linecap:round;stroke-linejoin:round"
       id="rect874-3"
       width="0.52916646"
       height="1.0583333"
       x="8.2020836"
       y="10.054167"
       ry="0.2645832"
       sodipodi:insensitive="true" />
    <path
       id="rect874-3-5"
       style="fill:url(#linearGradient2209);fill-opacity:1;stroke-width:0.138077;stroke-linecap:round;stroke-linejoin:round"
       d="M 31.974609,39 C 31.432669,39.013638 31,39.454657 31,40 v 0.974609 C 31.013638,40.432669 31.454657,40 32,40 c 0.545343,0 0.986362,0.432669 1,0.974609 V 40 c 0,-0.554 -0.446,-1 -1,-1 -0.0087,0 -0.01679,-2.16e-4 -0.02539,0 z"
       transform="scale(0.26458333)"
       sodipodi:insensitive="true" />
    <path
       style="fill:url(#linearGradient2481);fill-opacity:1;stroke:none;stroke-width:0.264583px;stroke-linecap:butt;stroke-linejoin:miter;stroke-opacity:1"
       d="m 8.4666666,10.583333 c -0.5291666,0 -0.7937499,0.529167 -0.79375,0.79375 1e-7,0.529167 0.5291667,1.058334 0.5291667,1.5875 0.5291667,-0.529166 1.0583334,-1.058333 1.0583333,-1.5875 1e-7,-0.264583 -0.2645833,-0.79375 -0.79375,-0.79375 z"
       id="path2393"
       sodipodi:nodetypes="ccccc"
       sodipodi:insensitive="true" />
    <path
       id="rect4415-3"
       style="fill:#444444;fill-opacity:0.4;stroke:none;stroke-width:0.264583;stroke-linecap:round;stroke-linejoin:round;filter:url(#filter5203)"
       d="m 11.12645,10.054167 c -0.439738,0 -0.79375,0.354013 -0.79375,0.79375 0,0.439738 0.354012,0.79375 0.79375,0.79375 0.439737,0 0.79375,-0.354012 0.79375,-0.79375 0,-0.439737 -0.354013,-0.79375 -0.79375,-0.79375 z M 11.1125,10.31875 c 0.0046,-1.14e-4 0.0094,0 0.01395,0 0.293158,0 0.529167,0.236009 0.529167,0.529167 0,0.293158 -0.236009,0.529167 -0.529167,0.529167 -0.293158,0 -0.529167,-0.236009 -0.529167,-0.529167 0,-0.288578 0.228438,-0.52195 0.515214,-0.529167 z"
       sodipodi:insensitive="true" />
    <path
       id="rect4415"
       style="opacity:1;fill:url(#linearGradient4442);fill-opacity:1;stroke:none;stroke-width:0.999999;stroke-linecap:round;stroke-linejoin:round"
       d="m 42,38 c -1.662,0 -3,1.338 -3,3 0,1.662 1.338,3 3,3 1.662,0 3,-1.338 3,-3 0,-1.662 -1.338,-3 -3,-3 z m -0.05273,1 c 0.0172,-4.33e-4 0.03542,0 0.05273,0 1.108,0 2,0.892 2,2 0,1.108 -0.892,2 -2,2 -1.108,0 -2,-0.892 -2,-2 0,-1.090687 0.863385,-1.972723 1.947266,-2 z"
       transform="scale(0.26458333)"
       sodipodi:insensitive="true" />
    <path
       id="path885-6-3-3-6"
       style="fill:#444444;fill-opacity:0.4;stroke:none;stroke-width:0.264583px;stroke-linecap:butt;stroke-linejoin:miter;stroke-opacity:1;filter:url(#filter1977)"
       d="M 15.875002,7.1437496 5.291666,16.139582 H 15.875002 Z M 15.081251,9.2604168 V 15.345832 H 8.202083 Z" />
    <g
       id="g1777">
      <rect
         style="opacity:1;fill:#ffffff;fill-opacity:1;stroke-width:0.264583;stroke-linecap:round;stroke-linejoin:round;filter:url(#filter1708)"
         id="rect1460"
         width="17.579357"
         height="17.309248"
         x="-0.33094874"
         y="-0.15000212"
         ry="2.5431328e-07"
         clip-path="url(#clipPath1760)" />
      <path
         id="rect846-1"
         style="fill:url(#linearGradient1410);fill-opacity:1;stroke-width:1.10745;stroke-linecap:round;stroke-linejoin:round;filter:url(#filter1676)"
         d="m 7.9374999,1.0583333 -6.085417,6.085417 V 12.7 c 0,1.75895 1.41605,3.175 3.175,3.175 H 11.90625 c 1.75895,0 3.175,-1.41605 3.175,-3.175 V 4.2333333 c 0,-1.75895 -1.41605,-3.175 -3.175,-3.175 z"
         clip-path="url(#clipPath1756)" />
      <rect
         style="fill:#828282;fill-opacity:0.2;stroke:none;stroke-width:0.264583;stroke-linecap:round;stroke-linejoin:round;filter:url(#filter5901-3)"
         id="rect5800-8"
         width="3.175"
         height="1.0583333"
         x="6.6145816"
         y="12.170834"
         ry="0.5291664"
         clip-path="url(#clipPath1752)" />
      <rect
         style="fill:url(#linearGradient1412);fill-opacity:1;stroke:none;stroke-width:0.200006;filter:url(#filter1680)"
         id="rect3279-7-3-6-1-7"
         width="5.291667"
         height="0.26458332"
         x="4.7624989"
         y="12.700001"
         ry="0.13229166"
         clip-path="url(#clipPath1748)" />
      <path
         id="rect4112-9-9"
         style="fill:#444444;fill-opacity:0.4;stroke:none;stroke-width:0.159188;stroke-linecap:round;stroke-linejoin:round;filter:url(#filter5774-9)"
         d="m 5.2508419,8.7312503 c -0.270607,0 -0.488342,0.217735 -0.488342,0.488342 v 1.1399817 c 0,0.270608 0.217735,0.488342 0.488342,0.488342 h 1.669149 c 0.270608,0 0.488342,-0.217734 0.488342,-0.488342 V 9.2195923 c 0,-0.270607 -0.217734,-0.488342 -0.488342,-0.488342 z m 0.142627,0.264583 h 1.383895 c 0.202956,0 0.366386,0.16343 0.366386,0.366386 v 0.8547277 c 0,0.202956 -0.16343,0.366386 -0.366386,0.366386 h -1.383895 c -0.202955,0 -0.366386,-0.16343 -0.366386,-0.366386 V 9.3622193 c 0,-0.202956 0.163431,-0.366386 0.366386,-0.366386 z"
         clip-path="url(#clipPath1744)" />
      <path
         id="rect4112-2"
         style="fill:url(#linearGradient1414);fill-opacity:1;stroke:none;stroke-width:0.159188;stroke-linecap:round;stroke-linejoin:round;filter:url(#filter1684)"
         d="m 5.2508419,8.7312503 c -0.270607,0 -0.488342,0.217735 -0.488342,0.488342 v 1.1399817 c 0,0.270608 0.217735,0.488343 0.488342,0.488343 h 1.669149 c 0.270608,0 0.488342,-0.217735 0.488342,-0.488343 V 9.2195923 c 0,-0.270607 -0.217734,-0.488342 -0.488342,-0.488342 z m 0.142627,0.264583 h 1.383895 c 0.202956,0 0.366386,0.16343 0.366386,0.366386 v 0.8547277 c 0,0.202956 -0.16343,0.366386 -0.366386,0.366386 h -1.383895 c -0.202956,0 -0.366386,-0.16343 -0.366386,-0.366386 V 9.3622193 c 0,-0.202956 0.16343,-0.366386 0.366386,-0.366386 z"
         clip-path="url(#clipPath1740)" />
      <path
         id="rect874-7-0"
         style="fill:#444444;fill-opacity:0.4;stroke-width:0.195271;stroke-linecap:round;stroke-linejoin:round;filter:url(#filter5118-2)"
         d="m 47,31.025391 c -0.554,0 -1,0.446 -1,1 v 6 c 0,0.182387 0.04819,0.353084 0.132812,0.5 C 46.048282,38.672255 46,38.843193 46,39.025391 v 0.183593 c -1.333433,0.516785 -2,1.999881 -2,2.816407 0,2.000001 2,4.000002 2,6 2.000001,-1.999998 4,-3.999999 4,-6 0,-0.816526 -0.666568,-2.299622 -2,-2.816407 v -0.183593 c 0,-0.182719 -0.04986,-0.352905 -0.134766,-0.5 C 47.950139,38.378295 48,38.208109 48,38.025391 v -6 c 0,-0.554 -0.446,-1 -1,-1 z"
         transform="matrix(0.26458333,0,0,0.26458333,-3.9687501,0.2578653)"
         clip-path="url(#clipPath1736)" />
      <rect
         style="fill:url(#linearGradient1416);fill-opacity:1;stroke-width:0.0516655;stroke-linecap:round;stroke-linejoin:round;filter:url(#filter1688)"
         id="rect874-2"
         width="0.52916646"
         height="2.116667"
         x="8.2020836"
         y="8.4666672"
         ry="0.26458323"
         clip-path="url(#clipPath1732)" />
      <rect
         style="fill:url(#linearGradient1418);fill-opacity:1;stroke-width:0.036533;stroke-linecap:round;stroke-linejoin:round;filter:url(#filter1692)"
         id="rect874-3-3"
         width="0.52916646"
         height="1.0583333"
         x="8.2020836"
         y="10.054165"
         ry="0.2645832"
         clip-path="url(#clipPath1728)" />
      <path
         id="rect874-3-5-7"
         style="fill:url(#linearGradient1420);fill-opacity:1;stroke-width:0.0365329;stroke-linecap:round;stroke-linejoin:round;filter:url(#filter1696)"
         d="m 8.4599489,10.31875 c -0.143389,0.0036 -0.257866,0.120295 -0.257866,0.264583 v 0.257865 c 0.0036,-0.143388 0.120295,-0.257865 0.264584,-0.257865 0.144288,0 0.260975,0.114477 0.264583,0.257865 v -0.257865 c 0,-0.146579 -0.118004,-0.264583 -0.264583,-0.264583 -0.0023,0 -0.0044,-5.7e-5 -0.0067,0 z"
         clip-path="url(#clipPath1724)" />
      <path
         style="fill:url(#linearGradient1422);fill-opacity:1;stroke:none;stroke-width:0.264583px;stroke-linecap:butt;stroke-linejoin:miter;stroke-opacity:1;filter:url(#filter1700)"
         d="m 8.4666669,10.583333 c -0.529167,0 -0.79375,0.529167 -0.79375,0.79375 0,0.529167 0.529166,1.058334 0.529166,1.5875 0.529167,-0.529166 1.058334,-1.058333 1.058334,-1.5875 0,-0.264583 -0.264584,-0.79375 -0.79375,-0.79375 z"
         id="path2393-5"
         sodipodi:nodetypes="ccccc"
         clip-path="url(#clipPath1720)" />
      <path
         id="rect4415-3-9"
         style="fill:#444444;fill-opacity:0.4;stroke:none;stroke-width:0.264583;stroke-linecap:round;stroke-linejoin:round;filter:url(#filter5203-2)"
         d="m 11.12645,10.054167 c -0.439738,0 -0.79375,0.354013 -0.79375,0.79375 0,0.439738 0.354012,0.79375 0.79375,0.79375 0.439737,0 0.79375,-0.354012 0.79375,-0.79375 0,-0.439737 -0.354013,-0.79375 -0.79375,-0.79375 z M 11.1125,10.31875 c 0.0046,-1.14e-4 0.0094,0 0.01395,0 0.293158,0 0.529167,0.236009 0.529167,0.529167 0,0.293158 -0.236009,0.529167 -0.529167,0.529167 -0.293158,0 -0.529167,-0.236009 -0.529167,-0.529167 0,-0.288578 0.228438,-0.52195 0.515214,-0.529167 z"
         clip-path="url(#clipPath1716)" />
      <path
         id="rect4415-2"
         style="fill:url(#linearGradient1424);fill-opacity:1;stroke:none;stroke-width:0.264583;stroke-linecap:round;stroke-linejoin:round;filter:url(#filter1704)"
         d="m 11.1125,10.054167 c -0.439738,0 -0.79375,0.354012 -0.79375,0.79375 0,0.439737 0.354012,0.79375 0.79375,0.79375 0.439737,0 0.79375,-0.354013 0.79375,-0.79375 0,-0.439738 -0.354013,-0.79375 -0.79375,-0.79375 z m -0.01395,0.264583 c 0.0046,-1.15e-4 0.0094,0 0.01395,0 0.293158,0 0.529167,0.236008 0.529167,0.529167 0,0.293158 -0.236009,0.529166 -0.529167,0.529166 -0.293158,0 -0.529167,-0.236008 -0.529167,-0.529166 0,-0.288578 0.228437,-0.52195 0.515214,-0.529167 z"
         clip-path="url(#clipPath1712)" />
    </g>
    <path
       id="path885-6-3-3"
       style="fill:#ffffff;fill-opacity:1;stroke:none;stroke-width:0.264583px;stroke-linecap:butt;stroke-linejoin:miter;stroke-opacity:1;opacity:0.2"
       d="M 15.875001,7.1437503 5.291666,16.139583 h 10.583335 z m -0.79375,2.1166666 V 15.345833 H 8.202083 Z" />
  </g>
</svg>
