<?xml version="1.0" encoding="UTF-8" standalone="no"?>
<svg
   width="16"
   height="16"
   viewBox="0 0 16 16"
   version="1.1"
   id="svg5"
   inkscape:version="1.1.1 (3bf5ae0d25, 2021-09-20, custom)"
   sodipodi:docname="edit-delete-symbolic.svg"
   xmlns:inkscape="http://www.inkscape.org/namespaces/inkscape"
   xmlns:sodipodi="http://sodipodi.sourceforge.net/DTD/sodipodi-0.dtd"
   xmlns="http://www.w3.org/2000/svg"
   xmlns:svg="http://www.w3.org/2000/svg"
   xmlns:rdf="http://www.w3.org/1999/02/22-rdf-syntax-ns#"
   xmlns:cc="http://creativecommons.org/ns#"
   xmlns:dc="http://purl.org/dc/elements/1.1/">
  <metadata
     id="metadata11">
    <rdf:RDF>
      <cc:Work
         rdf:about="">
        <dc:format>image/svg+xml</dc:format>
        <dc:type
           rdf:resource="http://purl.org/dc/dcmitype/StillImage" />
      </cc:Work>
    </rdf:RDF>
  </metadata>
  <sodipodi:namedview
     id="namedview7"
     pagecolor="#ffffff"
     bordercolor="#666666"
     borderopacity="1.0"
     inkscape:pageshadow="2"
     inkscape:pageopacity="0.0"
     inkscape:pagecheckerboard="0"
     inkscape:document-units="px"
     showgrid="false"
     inkscape:zoom="24.534844"
     inkscape:cx="6.337925"
     inkscape:cy="8.9668392"
     inkscape:window-width="1366"
     inkscape:window-height="680"
     inkscape:window-x="0"
     inkscape:window-y="0"
     inkscape:window-maximized="1"
     inkscape:current-layer="layer1"
     inkscape:document-rotation="0">
    <inkscape:grid
       type="xygrid"
       id="grid824" />
  </sodipodi:namedview>
  <defs
     id="defs2" />
  <g
     inkscape:label="Capa 1"
     inkscape:groupmode="layer"
     id="layer1">
    <path
       id="rect848"
       style="stroke-linecap:round;stroke-linejoin:round"
       d="M 5 4 C 3.338 4 2 5.338 2 7 L 2 13 C 2 14.662 3.338 16 5 16 L 11 16 C 12.662 16 14 14.662 14 13 L 14 7 C 14 5.338 12.662 4 11 4 L 5 4 z M 5.5 5 L 10.5 5 C 11.885 5 13 6.115 13 7.5 L 13 12.5 C 13 13.885 11.885 15 10.5 15 L 5.5 15 C 4.115 15 3 13.885 3 12.5 L 3 7.5 C 3 6.115 4.115 5 5.5 5 z " />
    <rect
       style="fill-rule:evenodd"
       id="rect951"
       width="6"
       height="1"
       x="5"
       y="0"
       ry="0.49395701"
       inkscape:transform-center-x="0.056998019"
       inkscape:transform-center-y="0.41952452" />
    <rect
       style="fill-rule:evenodd;stroke-width:1.52753"
       id="rect951-3"
       width="14"
       height="1"
       x="1"
       y="2"
       ry="0.49395701" />
  </g>
</svg>
